<?xml version="1.0" encoding="utf-8"?>
<!-- Generator: Adobe Illustrator 27.5.0, SVG Export Plug-In . SVG Version: 6.00 Build 0)  -->
<svg version="1.1" xmlns="http://www.w3.org/2000/svg" xmlns:xlink="http://www.w3.org/1999/xlink" x="0px" y="0px"
	 viewBox="0 0 2000 2000" style="enable-background:new 0 0 2000 2000;" xml:space="preserve">
<g id="background">
	<rect style="fill:#FFFFFF;" width="2000" height="2000"/>
</g>
<g id="object">
	<g>
		<g>
			<g>
				<path style="fill:#373B72;" d="M470.272,290.18c0,0,14.188-17.655,13.971-31.02c-0.217-13.365-8.358-17.044-8.358-17.044
					s11.833-10.267,3.969-31.186c-7.863-20.919-22.763-18.595-22.763-18.595s-1.486-9.879-9.912-16.27
					c-8.426-6.392-16.434,0-16.434,0s-1.161-15.108-20.072-20.338c-18.911-5.23-26.008,0-26.008,0s-3.218-14.527-22.129-15.689
					c-18.911-1.162-37.912,25.568-37.912,25.568s-14.237-4.068-19.968,9.878c-5.731,13.946,0,23.243,0,23.243
					s-19.484,10.46-20.63,31.379c-1.146,20.919,6.877,28.473,6.877,28.473s-14.9,15.108-14.9,28.473
					c0,13.365,17.872,30.061,17.872,30.061s-14.434,7.128-4.118,24.561c10.315,17.433,25.129,15.136,25.129,15.136
					s5.816,16.646,24.728,11.214C358.524,362.592,470.272,290.18,470.272,290.18z"/>
				<path style="fill:#F6BE8E;" d="M464.782,254.707c0,0,19.068,83.133-2.528,112.813c-21.596,29.681-42.647,31.984-42.647,31.984
					s1.845,39.273,16.665,50.373c14.82,11.099,18.126,10.385,14.82,11.099c-3.306,0.715-32.913,14.614-57.86,9.332
					c-24.947-5.282-43.04-14.884-43.04-14.884s6.579-37.494,6.031-55.921c-0.548-18.427-24.124-47.892-24.124-47.892
					s-18.642-4.663-22.48-15.952c-3.838-11.289-0.548-19.547,6.579-24.591s13.159-7.268,16.448-5.6
					c3.29,1.668,2.193,17.235,8.224,18.346c6.031,1.112,8.224,5.997,8.772,2.442c0.548-3.554-6.031-67.489-6.031-67.489
					s55.492-0.017,75.995-3.066c20.503-3.049,42.647-13.586,42.647-13.586L464.782,254.707z"/>
				<path style="fill:#E27785;" d="M367.736,378.026c0,0,9.984,21.559,51.87,21.479c0,0-2.525,27.718-5.815,27.162
					C410.502,426.11,372.122,391.652,367.736,378.026z"/>
				<path style="fill:#E27785;" d="M323.24,317.191c-2.093,0.158-4.051,0.233-5.538,1.916c-1.944,2.2-2.396,5.689-2.801,8.473
					c-0.229,1.575,2.148,2.254,2.379,0.665c0.487-3.343,0.782-7.534,4.674-8.458c1.6-0.38,3.534-0.535,5.273-0.225
					c-0.042,0.046-0.086,0.09-0.124,0.145c-3.112,4.462-3.376,10.159-0.859,14.961c0.746,1.422,2.876,0.16,2.13-1.263
					c-2.13-4.063-1.746-8.701,0.859-12.435c0.157-0.225,0.219-0.446,0.219-0.655c1.311,0.726,2.259,1.932,2.436,3.819
					c0.149,1.589,2.618,1.605,2.467,0C333.76,317.783,328.604,316.786,323.24,317.191z"/>
				<g>
					<ellipse style="fill:#842D54;" cx="386.939" cy="304.634" rx="5.787" ry="7.783"/>
					<path style="fill:#842D54;" d="M448.163,301.421c0,3.751-2.158,6.791-4.819,6.791s-4.819-3.04-4.819-6.791
						c0-3.75,2.158-6.791,4.819-6.791S448.163,297.67,448.163,301.421z"/>
					<path style="fill:#842D54;" d="M371.574,290.18c0,0,8.704-8.965,14.05-11.05c5.346-2.085,12.131,0,12.131,0v6.254
						c0,0-6.621-2.803-10.815-1.193C382.745,285.801,371.574,290.18,371.574,290.18z"/>
					<path style="fill:#842D54;" d="M438.525,277.254v5.837c0,0,4.874-1.668,8.164-1.668s7.402,2.768,7.402,2.768
						S451.745,275.794,438.525,277.254z"/>
				</g>
				<g>
					<path style="fill:#E27785;" d="M421.125,307.69c0.289,4.96,2.921,8.572,6.165,12.11c1.859,2.027,5.554,5.08,4.391,8.101
						c-0.969,2.518-3.824,5.333-5.393,7.509c-1.877,2.602,2.403,5.101,4.261,2.526c2.898-4.016,8.072-8.613,5.943-14.009
						c-2.387-6.048-10.029-9.333-10.432-16.237C425.873,304.49,420.938,304.468,421.125,307.69L421.125,307.69z"/>
					<path style="fill:#E27785;" d="M396.013,352.476c5.059,13.571,19.646,16.057,32.353,15.47c3.162-0.146,3.18-5.151,0-5.004
						c-10.096,0.467-23.412-0.576-27.595-11.796C399.659,348.162,394.887,349.455,396.013,352.476L396.013,352.476z"/>
				</g>
				<path style="fill:#FFFFFF;" d="M453.088,274.665c-11.99,0-21.841,11.429-22.725,25.882c-1.654-0.832-4.226-1.822-7.017-1.734
					c-3.293,0.098-7.571,2.147-9.806,3.345c-2.034-13.928-12.57-24.576-25.229-24.576c-12.697,0-23.259,10.71-25.248,24.698
					l-28.951,3.539l0.296,2.484l28.395-3.471c-0.048,0.737-0.081,1.479-0.081,2.23c0,16.255,11.479,29.48,25.59,29.48
					s25.59-13.225,25.59-29.48c0-0.745-0.032-1.48-0.079-2.211c1.559-0.884,6.338-3.441,9.597-3.537
					c2.97-0.095,5.772,1.378,6.887,2.048c0.305,15.113,10.403,27.295,22.782,27.295c12.57,0,22.797-12.559,22.797-27.996
					S465.658,274.665,453.088,274.665z M388.311,334.041c-12.75,0-23.123-12.103-23.123-26.979s10.373-26.978,23.123-26.978
					c12.75,0,23.123,12.102,23.123,26.978S401.061,334.041,388.311,334.041z M453.088,328.155c-11.21,0-20.329-11.436-20.329-25.494
					s9.12-25.494,20.329-25.494s20.329,11.436,20.329,25.494S464.298,328.155,453.088,328.155z"/>
			</g>
			<g>
				<path style="fill:#F6BE8E;" d="M553.454,1686.23c0,0-3.783,73.066,4.864,85.309c8.646,12.242,26.453,22.341-5.687,25.311
					c-32.141,2.97-58.08,1.188-58.08,0s-7.566-83.165-7.566-83.165L553.454,1686.23z"/>
				<path style="fill:#F6BE8E;" d="M301.628,1724.378c0,0-7.566,34.186-8.106,43.825c-0.54,9.638-10.268,16.173-32.424,10.232
					c-22.156-5.94-29.722-1.911-27.56-6.896c2.162-4.984,9.727-44.785,9.187-56.666
					C242.184,1702.993,305.014,1708.374,301.628,1724.378z"/>
				<path style="fill:#344066;" d="M563.681,1747.715c0,12.525-53.49,16.875-57.137,18.208c-0.908,0.34-2.925,0.584-5.551,0.645
					c-7.974,0.166-21.489-1.429-26.062-7.853c-6.079-8.533-26.749-232.027-25.533-258.498
					c1.216-26.471-49.542-370.476-49.542-370.476s-11.251,141.674-16.115,168.398c-4.863,26.733-66.873,458.432-68.089,467.785
					c-1.216,9.361-51.066,8.028-57.146,7.793c-1.586-0.061-4.582-1.081-8.22-2.755c-10.256-4.733-25.56-14.73-28.256-23.246
					c-3.647-11.532,9.727-198.304,15.806-271.817c6.079-73.504,6.079-188.446,7.295-254.062
					c0.661-35.44,4.511-125.462,7.912-200.745c0.476-10.381,0.934-20.474,1.374-30.115c2.282-49.857,4.088-87.363,4.088-87.363
					s37.991-17.607,88.212-30.742c35.965-9.396,78.203-16.491,117.27-13.188c93.613,7.932,70.106,75.039,70.106,75.039
					s1.049,28.258,2.74,74.245c0.203,5.456,0.414,11.157,0.625,17.101C545.232,1236.401,563.681,1737.814,563.681,1747.715z"/>
				<path style="fill:#1D2B4F;" d="M500.992,1766.569c-7.968,0.169-21.489-1.426-26.061-7.85
					c-6.079-8.536-26.75-232.03-25.534-258.503s-49.544-370.473-49.544-370.473l8.098-34.822c0,0,64.443-8.019,62.822-4.455
					c-1.621,3.564-51.878,45.141-53.5,46.183c-1.621,1.043,31.613,210.11,41.341,242.803c9.727,32.684,15.458,31.552,12.191,44.588
					C468.195,1434.456,491.484,1671.36,500.992,1766.569z"/>
				<path style="fill:#1D2B4F;" d="M250.29,1770.962c-10.262-4.731-25.566-14.729-28.258-23.248
					c-3.648-11.53,9.727-198.303,15.807-271.815c6.079-73.503,6.079-188.449,7.295-254.066c0.746-40.329,5.626-151.31,9.281-230.854
					c2.286-49.863,4.093-87.368,4.093-87.368s37.985-17.607,88.21-30.741c1.037,15.754,1.791,33.281,2.253,52.67
					C348.972,925.541,244.21,1476.87,250.29,1770.962z"/>
				<path style="fill:#1D2B4F;" d="M205.437,1824.176c0,0,25.399-68.314,32.964-65.938c7.566,2.376,24.858,7.723,31.884,7.723
					s24.858-4.752,27.56,0c2.702,4.752,6.485,76.63,5.944,82.571s-1.621,4.752-4.323,8.316c-2.702,3.564-44.313,4.752-49.717,4.752
					c-5.404,0-41.611-16.039-44.313-20.197C202.735,1837.245,205.437,1824.176,205.437,1824.176z"/>
				<path style="fill:#1D2B4F;" d="M490.768,1847.937c-0.536-1.784-9.727-30.89-6.485-42.177
					c3.242-11.287,5.944-34.722,10.808-37.558c4.864-2.836,11.348,0.598,14.591,3.336c3.242,2.738,13.51,8.678,18.914,6.302
					c5.404-2.376,21.076-23.883,28.101-19.664c7.025,4.219,30.262,28.574,38.909,32.138c8.646,3.564,51.338,16.039,57.282,23.167
					c5.944,7.128,5.404,29.702,3.783,30.89c-1.621,1.188-112.403,1.782-116.186,1.188c-3.783-0.594-13.51-13.069-14.05-10.099
					c-0.54,2.97-1.081,8.317-5.404,10.099C516.707,1847.343,491.834,1851.486,490.768,1847.937z"/>
				<path style="fill:#1D2B4F;" d="M537.461,1026.069c-35.322,11.34-72.82,22.427-84.6,22.427
					c-24.141,0-47.463-32.686-47.463-32.686s-36.758,27.456-46.009,23.456c-6.141-2.65-66.432-12.107-106.345-18.174
					c0.476-10.381,0.934-20.474,1.374-30.115c2.282-49.857,4.088-87.363,4.088-87.363s37.991-17.607,88.212-30.742
					c35.965-9.396,78.203-16.491,117.27-13.188c93.613,7.932,70.106,75.039,70.106,75.039s1.049,28.258,2.74,74.245
					C537.038,1014.424,537.249,1020.125,537.461,1026.069z"/>
			</g>
			<g>
				<path style="fill:#E6EDED;" d="M456.303,709.379c-31.952,61.086-66.592,15.027-93.777-47.891
					c-5.19-12.006-10.107-24.626-14.672-37.235c-0.211-0.561-0.413-1.131-0.616-1.692c-28.541-79.219-17.378-201.591-17.378-201.591
					s0,0,0.008,0.009c1.005,0.36,67.213,24.671,75.474,23.594c8.322-1.082,41.837-17.19,41.837-17.19s17.216,75.738,22.526,151.978
					C473.222,629.691,471.545,680.245,456.303,709.379z"/>
				<path style="fill:#B6CEDD;" d="M469.705,579.36c-17.638,13.449-31.733,21.443-31.733,21.443l-2.58-142.893l-25.373,9.805
					l10.489,196.938l-57.982-3.165c-5.19-12.006-10.107-24.626-14.672-37.235l4.995-78.846l31.333,84.678
					c0,0-0.384-57.632-1.585-94.359c-1.201-36.727-5.096-60.804-5.566-63.152c-0.46-2.356-10.108,7.007-17.579-0.96
					c-7.397-7.902-29.179-49.846-29.585-50.636c1.005,0.36,67.213,24.671,75.474,23.594c8.322-1.082,41.837-17.19,41.837-17.19
					S464.395,503.121,469.705,579.36z"/>
				<path style="fill:#EF5964;" d="M454.901,735.777l-48.236-11.772c0,0-5.764-19.684-7.402-32.134
					c-1.212-9.284-4.499-123.943-6.092-181.649c-0.539-19.687-0.887-32.747-0.887-32.747l18.514,7.994l2.832,16.059L454.901,735.777
					z"/>
				<path style="fill:#D13346;" d="M413.63,501.528l-20.459,8.694c-0.539-19.687-0.887-32.747-0.887-32.747l18.514,7.994
					L413.63,501.528z"/>
				<path style="fill:#EF5964;" d="M378.413,452.28c0,0,10.827,39.289,17.06,40.793c6.233,1.504,15.057,2.859,16.401-0.85
					s12.582-31.61,7.777-43.802c-4.805-12.192-23.035-14.731-30.359-11.886C381.967,439.381,377.124,447.797,378.413,452.28z"/>
				<path style="fill:#FFFFFF;" d="M329.859,420.97c0,0,17.296-12.295,20.729-12.107c3.433,0.187,47.401,26.001,51.502,24.411
					c4.102-1.59,17.258-22.403,19.455-20.537c2.197,1.866,25.633,14.647,25.633,14.647l-21.137,30.818
					c-3.214,4.687-10.132,4.434-13.005-0.476l-10.7-18.285c0,0-17.806,21.902-24.131,22.139
					C371.881,461.816,338.702,438.183,329.859,420.97z"/>
			</g>
			<g>
				<path style="fill:#F6BE8E;" d="M635.66,538.119c0,0,8.503-34.6,12.993-40.692c4.49-6.092,23.158-20.281,33.655-21.82
					c10.497-1.539,16.099-5.036,12.351,2.786s-17.036,14.833-17.036,14.833s28.347-8.723,32.74-12.708s25.72-29.013,28.212-28.877
					c2.493,0.136,6.602,1.205,6.906,3.334c0.304,2.129-2.524,8.311-2.524,8.311s6.589-6.4,7.746-4.647
					c1.157,1.753,0.563,5.1-0.425,8.004s-21.56,37.267-24.647,40.478c-3.087,3.211-36.793,27.948-43.028,33.56
					c-6.234,5.612-15.805,15.191-15.805,15.191L635.66,538.119z"/>
				<path style="fill:#E27785;" d="M702.279,507.537c-0.473-0.026-0.91-0.325-1.095-0.801c-0.252-0.65,0.063-1.385,0.704-1.641
					c0.146-0.058,14.656-5.885,18.408-10.313c3.901-4.602,21.438-31.91,21.614-32.186c0.377-0.586,1.15-0.752,1.727-0.37
					c0.578,0.381,0.741,1.165,0.365,1.751c-0.725,1.13-17.805,27.726-21.814,32.455c-4.154,4.901-18.767,10.771-19.387,11.018
					C702.63,507.519,702.452,507.546,702.279,507.537z"/>
			</g>
			<g>
				<path style="fill:#344066;" d="M692.757,541.598c0.175,4.811-94.5,190.945-108.819,201.223
					c-14.319,10.278-27.056,6.964-33.064,6.636c-6.008-0.328-35.919-36.876-35.919-36.876l15.062-202.639l3.468-46.676
					c0,0,16.402,12.924,19.64,24.885c3.239,11.961,21.913,139.846,23.336,136.72c1.423-3.126-1.558-3.725,1.423-3.126
					c2.981,0.599,4.551,3.452,4.551,3.452s46.939-105.824,49.131-106.578c2.192-0.753,18.501,0.137,20.485,3.3
					c1.984,3.163,1.314,15.784,1.314,15.784s8.395-12.199,9.683-12.128c1.021,0.056,18.968,7.067,26.461,12.355
					C691.474,539.328,692.724,540.601,692.757,541.598z"/>
				<path style="fill:#1D2B4F;" d="M692.757,541.598c0.175,4.811-94.5,190.945-108.819,201.223
					c-14.319,10.278-27.056,6.964-33.064,6.636c-6.008-0.328-35.919-36.876-35.919-36.876l15.062-202.639
					c4.864,1.618,7.456,8.246,6.93,21.406c0,0-0.233,176.756,5.857,175.552c6.089-1.195,35.081-85.156,35.081-85.156l4.551,3.452
					c0,0-37.029,97.532-22.906,107.154c13.617,9.271,93.98-123.909,129.979-194.42C691.474,539.328,692.724,540.601,692.757,541.598
					z"/>
			</g>
			<g>
				<path style="fill:#344066;" d="M551.965,1004.226c-6.614,4.754-19.644,6.635-36.597,8.651
					c-25.123,2.993-68.484-7.23-82.947-10.455c-14.464-3.216-27.652-21.534-29.354-25.467
					c-1.694-3.933,13.071-246.201,13.071-246.201s0.706-2.117,1.9-6.12c0,0,0,0,0.001-0.009
					c3.735-12.636,12.205-44.069,17.974-87.058c0.782-5.814,1.515-12.653,2.211-20.244c6.076-66.296,8.948-189.95,8.948-189.95
					s0,0,0.008,0.009c1.065,0.364,91.25,31.761,93.257,42.284c2.021,10.585-14.039,270.597-15.24,293.227
					c-1.201,22.63,31.366,219.934,31.58,232.123C556.849,998.975,555.151,1001.938,551.965,1004.226z"/>
				<path style="fill:#1D2B4F;" d="M551.965,1004.226c-6.614,4.754-19.644,6.635-36.597,8.651
					c-25.123,2.993-68.484-7.23-82.947-10.455c-14.464-3.216-27.652-21.534-29.354-25.467
					c-1.694-3.933,13.071-246.201,13.071-246.201s0.706-2.117,1.9-6.12c0,0,0,0,0.001-0.009
					c3.735-12.636,12.205-44.069,17.974-87.058c0.782-5.814,1.515-12.653,2.211-20.244c9.167,0.832,18.796,2.37,28.892,4.667
					c0,0-35.641,79.338-34.846,86.076c0.787,6.738,14.208,33.657,14.208,33.657s-29.293,221.311-12.703,239.264
					C445.09,993.224,503.933,1008.7,551.965,1004.226z"/>
				<path style="fill:#77829E;" d="M484.22,583.383c-0.923,6.688-65.487,139.815-66.182,141.243
					c3.735-12.636,12.205-44.069,17.974-87.058c7.594-56.611,11.159-210.194,11.159-210.194s0,0,0.008,0.009
					c0.516,0.831,33.873,53.847,35.084,63.157c1.224,9.372-28.771,33.921-27.301,38.663
					C456.432,533.935,485.153,576.669,484.22,583.383z"/>
				<path style="fill:#77829E;" d="M473.145,689.349c0,0,16.576,3.96,28.326,1.546c11.75-2.414,17.647-4.056,17.816-3.174
					s0.604,4.834-0.347,6.528c-0.951,1.694-10.803,7.048-24.308,6.966c-13.505-0.082-21.897-0.104-21.973-2.727
					C472.584,695.865,471.511,688.994,473.145,689.349z"/>
				<path style="fill:#77829E;" d="M483.153,873.784c0,0,58.086-13.123,61.513-7.408c3.427,5.715,11.265,25.638,9.711,27.881
					c-1.554,2.243-7.824,6.847-29.662,7.401c-21.837,0.554-36.46,0.337-37.961-3.818
					C485.253,893.684,479.003,874.693,483.153,873.784z"/>
				<path style="fill:#1D2B4F;" d="M482.216,902.247c0,0,6.401,63.197,9.487,64.53c3.086,1.332,54.083-2.576,54.083-2.576
					s-57.289,14.331-59.44,11.594C484.195,973.059,482.216,902.247,482.216,902.247z"/>
			</g>
			<g>
				<path style="fill:#344066;" d="M422.748,892.757c-4.489,25.863-9.902,51.772-14.236,71.455
					c-4.049,18.389-7.165,31.339-7.708,33.788c-1.13,5.071-55.226,18.703-74.249,20.283c-19.022,1.58-97.7-13.573-96.253-21.839
					c1.446-8.266,50.226-198.721,51.549-214.885c0.172-2.112-0.284-6.484-1.205-12.487c-3.195-20.897-12.043-61.611-19.747-95.682
					c-7.02-31.048-13.094-56.571-13.094-56.571l-4.368-32.841l-14.862-111.799c0,0,17.048-13.036,26.361-18.201
					c9.313-5.165,73.798-36.125,74.924-33.008c1.126,3.117,24.2,160.335,47.455,208.741c20.341,42.337,52.289,89.323,61.261,105.175
					l0.009,0c1.283,2.27,2.1,3.903,2.337,4.789C442.834,746.763,431.428,842.76,422.748,892.757z"/>
				<path style="fill:#1D2B4F;" d="M260.9,673.39c-7.02-31.048-13.094-56.571-13.094-56.571l-4.368-32.841
					c12.587-8.618,24.516-14.426,35.463-16.953C278.9,567.025,281.44,618.088,260.9,673.39z"/>
				<path style="fill:#1D2B4F;" d="M408.512,964.211c-4.049,18.389-7.165,31.339-7.708,33.788
					c-1.13,5.071-55.226,18.703-74.249,20.283c-19.022,1.58-97.7-13.573-96.253-21.839c1.446-8.266,50.226-198.721,51.549-214.885
					c0.172-2.112-0.284-6.484-1.205-12.487c44.112,3.839,120.426,12.439,129.002,13.702c9.396,1.386-13.589,174.892-4.397,180.108
					C406.179,963.412,407.283,963.848,408.512,964.211z"/>
				<path style="fill:#77829E;" d="M289.694,691.086c0.079-1.479,1.346-2.597,2.801-2.464c5.488,0.503,18.478,1.568,29.433,1.496
					c9.967-0.065,18.666-0.765,23.028-1.183c1.569-0.151,2.899,1.148,2.814,2.744l-0.298,5.604c-0.061,1.15-0.856,2.117-1.958,2.399
					c-2.931,0.749-9.836,1.942-24.2,1.997c-15.625,0.059-25.717-1.686-29.864-2.585c-1.243-0.269-2.106-1.411-2.038-2.698
					L289.694,691.086z"/>
				<path style="fill:#77829E;" d="M438.575,734.886c-54.856-42.589-134.287-180.887-135.32-185.744
					c-1.033-4.857,24.073-31.856,24.235-34.902c0.162-3.046-29.316-23.423-33.331-28.879c-4.014-5.457,35.7-64.391,35.7-64.391
					c1.126,3.117,24.2,160.335,47.455,208.741C397.655,672.048,429.603,719.033,438.575,734.886z"/>
			</g>
			<g>
				<path style="fill:#F9CB64;" d="M381.668,982.753l-236.031-12.884c-5.159-0.282-9.314-4.393-9.725-9.609l-0.268-3.384
					l-13.491-172.163c-0.434-5.61,3.54-10.421,8.806-11.19c0.659-0.095,1.341-0.128,2.036-0.089l241.378,13.176
					c5.279,0.288,9.493,4.586,9.751,9.942l8.403,175.255C392.827,977.994,387.779,983.086,381.668,982.753z"/>
				<path style="fill:#FC8449;" d="M316.158,979.177l-170.521-9.308c-5.159-0.282-9.314-4.393-9.725-9.609l-0.268-3.384l55.81,3.047
					l-60.495-186.399c0.659-0.095,1.341-0.128,2.036-0.089l115.706,6.316L316.158,979.177z"/>
			</g>
			<g>
				<path style="fill:#F6BE8E;" d="M208.016,932.379c0,0,3.013,24.314,3.339,28.988c0.326,4.673-1.032,19.438-1.032,19.438
					s11.886,11.705,17.617,10.272c5.731-1.433,6.774-4.868,6.774-4.868s4.439,2.861,10.192,2.593
					c5.753-0.268,7.399-4.252,7.399-4.252s1.756,4.751,9.017,3.111c7.261-1.64,8.575-4.769,8.575-4.769s2.197,1.866,8.808,1.645
					s9.301-7.639,9.301-7.639s-11.565-9.173-12.566-11.94c-1.001-2.767,0.412-23.982-2.653-31.107
					c-3.065-7.124-10.297-16.83-10.297-16.83L208.016,932.379z"/>
				<path style="fill:#FFFFFF;" d="M196.027,920.377c0,0,2.199,12.632,5.764,15.736c3.565,3.104,43.334-5.49,44.47-5.283
					c1.137,0.207,20.234-10.971,21.861-13.209c1.628-2.239-8.834-32.197-8.834-32.197s-22.055-6.15-39.337,0.471
					C202.672,892.516,193.503,903.072,196.027,920.377z"/>
				<path style="fill:#344066;" d="M268.376,908.902c-0.821,1.684-5.111,4.339-10.03,6.505c-6.647,2.937-14.425,4.974-16.275,2.533
					c-3.218-4.243-13.262-20.504-13.96-18.22c-0.69,2.293,4.739,18.886,2.263,22.242c-2.468,3.357-39.104,12.408-40.421,4.777
					c-1.316-7.64-61.739-188.423-60.486-201.159c1.253-12.737,64.454-176.297,77.98-204.076
					c13.526-27.77,17.102-46.491,21.127-49.326c0,0,15.576,7.388,28.876,23.294c6.832,8.168,13.062,18.581,16.282,31.396
					c9.479,37.764,6.263,55.046-9.956,90.237c-16.21,35.2-47.251,101.006-45.966,109.221c1.285,8.223,31.103,105.868,37.95,128.352
					C262.598,877.163,270.308,904.94,268.376,908.902z"/>
				<path style="fill:#1D2B4F;" d="M268.376,908.902c-0.821,1.684-5.111,4.339-10.03,6.505
					c-20.892-75.903-48.83-176.527-50.824-179.168c-3.218-4.243-14.146-3.679-19.81-5.149c-5.663-1.479,3.711-5.035,13.27-12.081
					c9.551-7.047,62.155-122.303,66.696-164.539c2.125-19.76-3.565-41.482-10.228-58.998c6.832,8.168,13.062,18.581,16.282,31.396
					c9.479,37.764,6.263,55.046-9.956,90.237c-16.21,35.2-47.251,101.006-45.966,109.221c1.285,8.223,31.103,105.868,37.95,128.352
					C262.598,877.163,270.308,904.94,268.376,908.902z"/>
				<g>
					<path style="fill:#E27785;" d="M234.041,986.984c0.844,1.451-1.457,2.635-2.293,1.193c-3.054-5.229-4.247-11.125-3.471-17.15
						c0.209-1.665,2.784-1.533,2.575,0.141C230.123,976.794,231.192,982.107,234.041,986.984z"/>
					<path style="fill:#E27785;" d="M269.252,983.364c-4.068-3.146-6.844-7.461-7.969-12.533c-0.369-1.644,2.157-2.195,2.517-0.552
						c0.973,4.383,3.336,8.178,6.867,10.902C271.984,982.186,270.576,984.379,269.252,983.364z"/>
					<path style="fill:#E27785;" d="M252.066,984.407c0.897,1.419-1.403,2.594-2.293,1.193c-2.701-4.25-3.819-9.147-3.259-14.17
						c0.183-1.666,2.759-1.534,2.575,0.141C248.577,976.195,249.58,980.492,252.066,984.407z"/>
				</g>
			</g>
		</g>
		<g>
			<path style="fill:#B6CEDD;" d="M1614.343,197.187H792.708c-2.651,0-4.8-2.149-4.8-4.8v-24.733c0-2.651,2.149-4.8,4.8-4.8h821.635
				c2.651,0,4.8,2.149,4.8,4.8v24.733C1619.143,195.038,1616.994,197.187,1614.343,197.187z"/>
			<path style="fill:#B6CEDD;" d="M1614.343,806.705H792.708c-2.651,0-4.8-2.149-4.8-4.8v-24.733c0-2.651,2.149-4.8,4.8-4.8h821.635
				c2.651,0,4.8,2.149,4.8,4.8v24.733C1619.143,804.556,1616.994,806.705,1614.343,806.705z"/>
			<rect x="804.837" y="197.187" style="fill:#E6EDED;" width="795.683" height="575.185"/>
			<rect x="826.571" y="212.597" style="fill:#FFFFFF;" width="635.363" height="459.292"/>
			<g>
				<g>
					<path style="fill:#40CCBB;" d="M1337.265,317.352H1215.38c-2.651,0-4.8-2.149-4.8-4.8v-41.899c0-2.651,2.149-4.8,4.8-4.8
						h121.885c2.651,0,4.8,2.149,4.8,4.8v41.899C1342.065,315.203,1339.916,317.352,1337.265,317.352z"/>
					<ellipse style="fill:#FFFFFF;" cx="1233.646" cy="285.236" rx="8.394" ry="8.512"/>
					<g>
						<path style="fill:#FFFFFF;" d="M1322.204,285.236h-65.524c-1.307,0-2.367-1.06-2.367-2.367v-0.345
							c0-1.307,1.06-2.367,2.367-2.367h65.524c1.307,0,2.367,1.06,2.367,2.367v0.345
							C1324.571,284.177,1323.511,285.236,1322.204,285.236z"/>
						<path style="fill:#FFFFFF;" d="M1300.196,296.287h-43.516c-1.307,0-2.367-1.06-2.367-2.367v-0.345
							c0-1.307,1.06-2.367,2.367-2.367h43.516c1.307,0,2.367,1.06,2.367,2.367v0.345
							C1302.563,295.228,1301.503,296.287,1300.196,296.287z"/>
					</g>
				</g>
				<g>
					<path style="fill:#EF5964;" d="M991.481,620.767H869.596c-2.651,0-4.8-2.149-4.8-4.8v-41.899c0-2.651,2.149-4.8,4.8-4.8
						h121.885c2.651,0,4.8,2.149,4.8,4.8v41.899C996.281,618.618,994.132,620.767,991.481,620.767z"/>
					<ellipse style="fill:#FFFFFF;" cx="887.862" cy="588.651" rx="8.394" ry="8.512"/>
					<g>
						<path style="fill:#FFFFFF;" d="M976.421,588.651h-65.524c-1.307,0-2.367-1.06-2.367-2.367v-0.345
							c0-1.307,1.06-2.367,2.367-2.367h65.524c1.307,0,2.367,1.06,2.367,2.367v0.345
							C978.787,587.592,977.728,588.651,976.421,588.651z"/>
						<path style="fill:#FFFFFF;" d="M954.412,599.702h-43.516c-1.307,0-2.367-1.06-2.367-2.367v-0.345
							c0-1.307,1.06-2.367,2.367-2.367h43.516c1.307,0,2.367,1.06,2.367,2.367v0.345
							C956.779,598.643,955.719,599.702,954.412,599.702z"/>
					</g>
				</g>
				<g>
					<path style="fill:#344066;" d="M1149.371,344.205l-5.119-4.497l34.867-40.802c4.666-5.46,11.427-8.591,18.552-8.591h12.908
						v6.867h-12.908c-5.159,0-10.056,2.267-13.434,6.221L1149.371,344.205z"/>
					<polygon style="fill:#344066;" points="984.99,327.005 936.318,282.713 940.842,277.603 989.514,321.895 					"/>
					<path style="fill:#344066;" d="M925.036,573.13h-6.772v-40.747c0-6.662,2.695-13.151,7.395-17.806l32.563-32.254l4.732,4.912
						l-32.563,32.254c-3.403,3.37-5.355,8.07-5.355,12.894V573.13z"/>
				</g>
				<g>
					<path style="fill:#40CCBB;" d="M1181.517,417.346c0,71.189-55.672,129.185-125.278,131.666v-48.976
						c42.95-2.438,77.029-38.53,77.029-82.69c0-29.775-15.491-55.885-38.752-70.476l17.598-46.135
						C1153.389,322.802,1181.517,366.739,1181.517,417.346z"/>
					<path style="fill:#EF5964;" d="M1056.24,500.036v48.976c-1.541,0.06-3.098,0.086-4.656,0.086
						c-71.764,0-129.933-58.983-129.933-131.752c0-33.14,12.062-63.421,31.988-86.57l36.034,32.53
						c-12.325,14.506-19.774,33.389-19.774,54.04c0,45.748,36.568,82.828,81.684,82.828
						C1053.15,500.173,1054.699,500.13,1056.24,500.036z"/>
					<path style="fill:#F9CB64;" d="M1112.115,300.735l-17.598,46.135c-12.477-7.836-27.18-12.351-42.933-12.351
						c-24.751,0-46.928,11.158-61.911,28.788l-36.034-32.53c23.82-27.689,58.864-45.182,97.945-45.182
						C1073.44,285.594,1094.035,291.07,1112.115,300.735z"/>
				</g>
				<g>
					<path style="fill:#F9CB64;" d="M979.066,284.843H857.181c-2.651,0-4.8-2.149-4.8-4.8v-41.899c0-2.651,2.149-4.8,4.8-4.8
						h121.885c2.651,0,4.8,2.149,4.8,4.8v41.899C983.866,282.694,981.717,284.843,979.066,284.843z"/>
					<g>
						<ellipse style="fill:#FFFFFF;" cx="875.447" cy="252.728" rx="8.394" ry="8.512"/>
						<g>
							<path style="fill:#FFFFFF;" d="M964.006,252.728h-65.524c-1.307,0-2.367-1.06-2.367-2.367v-0.345
								c0-1.307,1.06-2.367,2.367-2.367h65.524c1.307,0,2.367,1.06,2.367,2.367v0.345
								C966.372,251.668,965.313,252.728,964.006,252.728z"/>
							<path style="fill:#FFFFFF;" d="M941.997,263.778h-43.516c-1.307,0-2.367-1.06-2.367-2.367v-0.345
								c0-1.307,1.06-2.367,2.367-2.367h43.516c1.307,0,2.367,1.06,2.367,2.367v0.345
								C944.364,262.719,943.305,263.778,941.997,263.778z"/>
						</g>
					</g>
				</g>
			</g>
			<g>
				<g>
					<path style="fill:#40CCBB;" d="M1243.004,595.211h-24.915c-1.326,0-2.4-1.075-2.4-2.4v-93.532c0-1.326,1.074-2.4,2.4-2.4
						h24.915c1.326,0,2.4,1.074,2.4,2.4v93.532C1245.404,594.136,1244.329,595.211,1243.004,595.211z"/>
					<path style="fill:#40CCBB;" d="M1302.434,595.211h-24.915c-1.326,0-2.4-1.075-2.4-2.4v-154.68c0-1.326,1.074-2.4,2.4-2.4
						h24.915c1.325,0,2.4,1.075,2.4,2.4v154.68C1304.834,594.136,1303.76,595.211,1302.434,595.211z"/>
					<path style="fill:#40CCBB;" d="M1361.865,595.211h-24.915c-1.325,0-2.4-1.075-2.4-2.4V459.4c0-1.325,1.074-2.4,2.4-2.4h24.915
						c1.325,0,2.4,1.075,2.4,2.4v133.411C1364.265,594.136,1363.19,595.211,1361.865,595.211z"/>
					<path style="fill:#40CCBB;" d="M1421.295,595.211h-24.915c-1.326,0-2.4-1.075-2.4-2.4V407.113c0-1.326,1.074-2.4,2.4-2.4
						h24.915c1.326,0,2.4,1.075,2.4,2.4v185.698C1423.695,594.136,1422.621,595.211,1421.295,595.211z"/>
					<path style="fill:#40CCBB;" d="M1480.726,595.211h-24.915c-1.326,0-2.4-1.075-2.4-2.4V471.806c0-1.326,1.074-2.4,2.4-2.4
						h24.915c1.325,0,2.4,1.074,2.4,2.4v121.004C1483.126,594.136,1482.051,595.211,1480.726,595.211z"/>
					<path style="fill:#40CCBB;" d="M1540.156,595.211h-24.915c-1.325,0-2.4-1.075-2.4-2.4v-220.26c0-1.326,1.074-2.4,2.4-2.4
						h24.915c1.325,0,2.4,1.074,2.4,2.4v220.26C1542.556,594.136,1541.482,595.211,1540.156,595.211z"/>
				</g>
				<g>
					<path style="fill:#4297CC;" d="M1245.401,534.029v58.525c0,1.471-1.171,2.659-2.622,2.659h-24.471
						c-1.442,0-2.622-1.187-2.622-2.659v-77.454C1224.434,522.021,1234.406,528.366,1245.401,534.029z"/>
					<path style="fill:#4297CC;" d="M1304.831,555.395v37.159c0,1.471-1.171,2.659-2.622,2.659h-24.471
						c-1.442,0-2.622-1.187-2.622-2.659v-45.79C1284.555,550.087,1294.492,552.985,1304.831,555.395z"/>
					<path style="fill:#4297CC;" d="M1364.262,563.433v29.121c0,1.471-1.171,2.659-2.622,2.659h-24.471
						c-1.442,0-2.622-1.187-2.622-2.659V560.81C1344.213,562.095,1354.132,562.99,1364.262,563.433z"/>
					<path style="fill:#4297CC;" d="M1423.692,561.014v31.54c0,1.471-1.171,2.659-2.622,2.659h-24.471
						c-1.442,0-2.622-1.187-2.622-2.659v-29.05C1404.106,563.105,1414.026,562.263,1423.692,561.014z"/>
					<path style="fill:#4297CC;" d="M1483.123,547.322v45.232c0,1.471-1.171,2.659-2.622,2.659h-24.471
						c-1.442,0-2.622-1.187-2.622-2.659v-36.786C1463.738,553.419,1473.675,550.583,1483.123,547.322z"/>
					<path style="fill:#4297CC;" d="M1542.553,516.358v76.196c0,1.471-1.171,2.659-2.622,2.659h-24.471
						c-1.442,0-2.622-1.187-2.622-2.659v-57.71C1523.798,529.323,1533.77,523.12,1542.553,516.358z"/>
				</g>
				<path style="fill:#F9CB64;" d="M1207.025,575.752c-1.156,0-2.286-0.58-2.952-1.642c-1.037-1.651-0.557-3.843,1.071-4.894
					l194.034-125.249c5.916-3.817,13.763-2.579,18.251,2.883l66.024,80.321l72.824-68.342c1.418-1.33,3.63-1.243,4.94,0.194
					c1.312,1.437,1.226,3.679-0.191,5.009l-78.229,73.414l-70.738-86.057c-2.245-2.731-6.169-3.352-9.125-1.441L1208.9,575.197
					C1208.318,575.572,1207.667,575.752,1207.025,575.752z"/>
			</g>
			<g>
				<g>
					<path style="fill:#B6CEDD;" d="M1453.421,272.147h-23.509c-1.767,0-3.2-1.433-3.2-3.2V245.02c0-1.767,1.433-3.2,3.2-3.2h23.509
						c1.767,0,3.2,1.433,3.2,3.2v23.927C1456.621,270.714,1455.188,272.147,1453.421,272.147z"/>
					<path style="fill:#B6CEDD;" d="M1453.421,324.075h-23.509c-1.767,0-3.2-1.433-3.2-3.2v-23.927c0-1.767,1.433-3.2,3.2-3.2
						h23.509c1.767,0,3.2,1.433,3.2,3.2v23.927C1456.621,322.642,1455.188,324.075,1453.421,324.075z"/>
				</g>
				<g>
					<g>
						<path style="fill:#B6CEDD;" d="M1550.185,252.406h-71.162c-1.62,0-2.933-1.313-2.933-2.933v-0.428
							c0-1.62,1.313-2.933,2.933-2.933h71.162c1.62,0,2.933,1.313,2.933,2.933v0.428
							C1553.119,251.092,1551.805,252.406,1550.185,252.406z"/>
						<path style="fill:#B6CEDD;" d="M1519.712,267.569h-40.689c-1.62,0-2.933-1.313-2.933-2.933v-0.428
							c0-1.62,1.313-2.933,2.933-2.933h40.689c1.62,0,2.933,1.313,2.933,2.933v0.428
							C1522.646,266.256,1521.332,267.569,1519.712,267.569z"/>
					</g>
					<g>
						<path style="fill:#B6CEDD;" d="M1550.185,304.477h-71.162c-1.62,0-2.933-1.313-2.933-2.933v-0.428
							c0-1.62,1.313-2.933,2.933-2.933h71.162c1.62,0,2.933,1.313,2.933,2.933v0.428
							C1553.119,303.164,1551.805,304.477,1550.185,304.477z"/>
						<path style="fill:#B6CEDD;" d="M1519.712,319.641h-40.689c-1.62,0-2.933-1.313-2.933-2.933v-0.428
							c0-1.62,1.313-2.933,2.933-2.933h40.689c1.62,0,2.933,1.313,2.933,2.933v0.428
							C1522.646,318.327,1521.332,319.641,1519.712,319.641z"/>
					</g>
				</g>
			</g>
			<g>
				<ellipse style="fill:#77829E;" cx="1120.288" cy="677.274" rx="48.532" ry="49.212"/>
				<path style="fill:#B6CEDD;" d="M1168.82,677.274h-48.532v-49.212C1147.094,628.063,1168.82,650.092,1168.82,677.274z"/>
				<ellipse style="fill:#B6CEDD;" cx="1264.218" cy="677.274" rx="48.532" ry="49.212"/>
				<path style="fill:#FFFFFF;" d="M1264.218,726.486v-49.212h48.532C1312.751,704.456,1291.025,726.486,1264.218,726.486z"/>
			</g>
			<g>
				<path style="fill:#B6CEDD;" d="M1537.487,648.662h-153.11c-2.798,0-5.067-2.268-5.067-5.067v-0.739
					c0-2.798,2.268-5.067,5.067-5.067h153.11c2.798,0,5.067,2.268,5.067,5.067v0.739
					C1542.553,646.394,1540.285,648.662,1537.487,648.662z"/>
				<path style="fill:#B6CEDD;" d="M1537.487,677.274h-153.11c-2.798,0-5.067-2.268-5.067-5.067v-0.739
					c0-2.798,2.268-5.067,5.067-5.067h153.11c2.798,0,5.067,2.268,5.067,5.067v0.739
					C1542.553,675.006,1540.285,677.274,1537.487,677.274z"/>
				<path style="fill:#B6CEDD;" d="M1537.487,705.886h-153.11c-2.798,0-5.067-2.268-5.067-5.067v-0.739
					c0-2.798,2.268-5.067,5.067-5.067h153.11c2.798,0,5.067,2.268,5.067,5.067v0.739
					C1542.553,703.618,1540.285,705.886,1537.487,705.886z"/>
				<path style="fill:#B6CEDD;" d="M1537.487,734.498h-153.11c-2.798,0-5.067-2.268-5.067-5.067v-0.739
					c0-2.798,2.268-5.067,5.067-5.067h153.11c2.798,0,5.067,2.268,5.067,5.067v0.739
					C1542.553,732.23,1540.285,734.498,1537.487,734.498z"/>
			</g>
		</g>
		<g>
			<path style="fill:#344066;" d="M1385.753,909.141c0,0-125.657,20.331-133.064,26.124c-5.901,4.615-30.509,32.093-40.274,43.077
				c-2.286,2.572-2.374,6.462-0.204,9.008l0,0c2.469,2.898,6.859,2.924,9.521,0.054c10.086-10.872,32.978-34.78,42.318-38.204
				c12.149-4.454,129.273-25.744,129.273-25.744L1385.753,909.141z"/>
			<path style="fill:#344066;" d="M1353.778,910.28c0,0,124.48,20.453,131.553,26.253c5.634,4.621,28.657,32.122,37.787,43.115
				c2.138,2.574,2.001,6.464-0.315,9.007l0,0c-2.637,2.895-7.027,2.918-9.524,0.045c-9.458-10.881-30.97-34.811-40.112-38.244
				c-11.891-4.465-127.784-25.869-127.784-25.869L1353.778,910.28z"/>
			<path style="fill:#344066;" d="M1464.86,878.25c-38.412-4.052-57.895,5.093-66.912,10.802
				c-9.004,5.723-11.315,7.854-26.845,7.111c-15.543-0.729-24.822-6.191-31.552-9.857c-5.7-3.106-12.112-5.276-18.905-6.758
				c-19.669-4.278-42.593-2.703-60.915-0.899c-23.014,2.259-28.99,3.099-30.008,9.757c-1.018,6.644-0.886,12.236,1.222,12.891
				c2.108,0.655,4.251,0.764,4.586,3.571c0.335,2.806-4.311,52.284,21.756,63.562c26.068,11.278,27.301,9.093,49.465,7.349
				c22.177-1.757,29.541-6.982,36.199-17.286c6.658-10.291,10.596-35.228,17.015-42.187c6.419-6.959,20.848-5.724,23.793,5.576
				c2.945,11.314,5.449,43.809,22.223,49.626c16.788,5.816,51.717,13.597,73.199-1.018c21.481-14.628,22.056-37.489,23.398-48.599
				c1.328-11.096,1.736-16.668,3.424-17.699c1.688-1.045,4.406-1.475,5.041-10.379C1511.691,884.91,1503.273,882.289,1464.86,878.25
				z M1344.379,939.033c-1.579,3.963-3.645,7.974-6.265,11.978c-12.082,18.41-39.191,21.608-68.755,14.073
				c-29.564-7.536-28.235-63.302-20.668-71.326c0.549-0.58,1.256-1.121,2.106-1.637c10.807-6.524,43.707-7.367,43.707-7.367
				c36.054-0.543,45.562,9.391,50.771,19.135C1349.347,911.504,1350.062,924.798,1344.379,939.033z M1493.157,936.23
				c-4.084,14.624-12.286,28.359-26.313,31.472c-30.141,6.716-56.962,2.789-67.523-15.946c-10.548-18.721-9.274-37.675-3.26-47.262
				c0.744-1.21,1.566-2.408,2.507-3.593c6.492-8.242,18.324-15.461,49.78-14.13c0,0,38.116,2.05,45.008,10.258
				C1497.048,901.429,1497.83,919.43,1493.157,936.23z"/>
			<path style="opacity:0.46;fill:#E0E0E0;" d="M1344.379,939.033c-1.579,3.963-3.645,7.974-6.265,11.978
				c-12.082,18.41-39.191,21.608-68.755,14.073c-29.564-7.536-28.235-63.302-20.668-71.326c0.549-0.58,1.256-1.121,2.106-1.637
				c10.807-6.524,43.707-7.367,43.707-7.367c36.054-0.543,45.562,9.391,50.771,19.135
				C1349.347,911.504,1350.062,924.798,1344.379,939.033z"/>
			<g style="opacity:0.52;">
				<path style="fill:#FFFFFF;" d="M1344.377,939.041c-1.578,3.949-3.646,7.972-6.263,11.969c-1.653,2.519-3.585,4.749-5.761,6.707
					c2.532-3.909,4.55-7.846,6.093-11.708c5.686-14.244,4.975-27.528,0.896-35.151c-5.215-9.737-14.715-19.678-50.768-19.139
					c0,0-30.167,0.782-42.211,6.578c0.665-2.05,1.456-3.611,2.327-4.535c0.55-0.584,1.257-1.127,2.113-1.638
					c10.802-6.522,43.703-7.373,43.703-7.373c36.054-0.539,45.553,9.402,50.768,19.139
					C1349.352,911.513,1350.063,924.797,1344.377,939.041z"/>
			</g>
			<path style="opacity:0.46;fill:#E0E0E0;" d="M1493.157,936.23c-4.084,14.624-12.286,28.359-26.313,31.472
				c-30.141,6.716-56.962,2.789-67.523-15.946c-10.548-18.721-9.274-37.675-3.26-47.262c0.744-1.21,1.566-2.408,2.507-3.593
				c6.492-8.242,18.324-15.461,49.78-14.13c0,0,38.116,2.05,45.008,10.258C1497.048,901.429,1497.83,919.43,1493.157,936.23z"/>
			<g style="opacity:0.52;">
				<path style="fill:#FFFFFF;" d="M1493.156,936.234c-2.676,9.588-7.124,18.794-13.822,24.875
					c3.518-5.257,6.098-11.492,7.89-17.908c4.681-16.807,3.89-34.802,0.207-39.2c-6.902-8.216-45.023-10.262-45.023-10.262
					c-26.014-1.106-38.614,3.647-45.857,9.994c0.614-0.956,1.278-1.903,2.016-2.834c6.492-8.241,18.328-15.465,49.772-14.127
					c0,0,38.121,2.045,45.023,10.262C1497.046,901.432,1497.837,919.427,1493.156,936.234z"/>
			</g>
			<path style="opacity:0.28;fill:#6D3545;" d="M1344.379,939.038c-1.575,3.952-3.645,7.975-6.266,11.972
				c-12.08,18.416-39.191,21.607-68.755,14.074c-29.564-7.533-28.232-63.306-20.665-71.325c0.547-0.583,1.259-1.125,2.107-1.637
				c-0.871,23.192,3.868,55.091,35.715,58.694C1318.927,954.485,1336.167,945.782,1344.379,939.038z"/>
			<path style="opacity:0.28;fill:#6D3545;" d="M1493.154,936.233c-4.076,14.627-12.28,28.356-26.306,31.477
				c-30.15,6.711-56.968,2.781-67.522-15.946c-10.548-18.727-9.278-37.684-3.27-47.268c0.754-1.204,1.577-2.41,2.512-3.595
				c-0.966,21.68,4.414,50.65,40.022,50.929C1468.094,952.061,1484.345,944.026,1493.154,936.233z"/>
			<g>
				<path style="fill:#DF8562;" d="M1241.311,891.737c-0.111,1.537-1.28,2.732-2.612,2.669c-1.332-0.063-2.321-1.359-2.211-2.896
					c0.111-1.537,1.28-2.732,2.612-2.669C1240.432,888.904,1241.422,890.2,1241.311,891.737z"/>
				<path style="fill:#DF8562;" d="M1506.187,894.148c-0.111,1.537-1.28,2.732-2.612,2.669c-1.332-0.063-2.321-1.359-2.211-2.896
					c0.111-1.537,1.28-2.732,2.612-2.669C1505.308,891.315,1506.298,892.612,1506.187,894.148z"/>
			</g>
		</g>
		<g>
			<ellipse style="fill:#B6CEDD;" cx="1091.471" cy="938.27" rx="77.349" ry="78.431"/>
			<ellipse style="fill:#FFFFFF;" cx="1091.471" cy="938.27" rx="58.076" ry="58.889"/>
			<path style="fill:#B6CEDD;" d="M1123.692,973.981c-0.767,0-1.534-0.297-2.12-0.891l-33.099-33.561v-41.53
				c0-1.679,1.342-3.04,2.998-3.04c1.656,0,2.998,1.361,2.998,3.04v39.012l31.342,31.781c1.171,1.187,1.171,3.112,0,4.299
				C1125.227,973.684,1124.459,973.981,1123.692,973.981z"/>
			<ellipse style="fill:#B6CEDD;" cx="1091.471" cy="938.27" rx="10.89" ry="11.042"/>
		</g>
		<g>
			<path style="fill:#77829E;" d="M922.469,1315.902H646.493c-7.953,0-14.4-6.447-14.4-14.4V903.09c0-7.953,6.447-14.4,14.4-14.4
				h275.977c7.953,0,14.4,6.447,14.4,14.4v398.412C936.869,1309.455,930.422,1315.902,922.469,1315.902z"/>
			<path style="fill:#E6EDED;" d="M907.791,990.844H656.972c-1.767,0-3.2-1.433-3.2-3.2v-70.455c0-1.767,1.433-3.2,3.2-3.2h250.819
				c1.767,0,3.2,1.433,3.2,3.2v70.455C910.99,989.412,909.558,990.844,907.791,990.844z"/>
			<path style="fill:#B6CEDD;" d="M910.99,942.529v44.553c0,2.077-1.443,3.759-3.225,3.759H656.997
				c-1.782,0-3.225-1.682-3.225-3.759v-43.895c31.374,12.489,77.012,20.355,127.803,20.355
				C833.245,963.541,879.576,955.403,910.99,942.529z"/>
			<path style="fill:#FFFFFF;" d="M702.197,1035.313h-46.825c-0.884,0-1.6-0.716-1.6-1.6v-15.412c0-0.884,0.716-1.6,1.6-1.6h46.825
				c0.884,0,1.6,0.716,1.6,1.6v15.412C703.797,1034.597,703.081,1035.313,702.197,1035.313z"/>
			<path style="fill:#F9CB64;" d="M771.262,1035.313h-46.825c-0.884,0-1.6-0.716-1.6-1.6v-15.412c0-0.884,0.716-1.6,1.6-1.6h46.825
				c0.884,0,1.6,0.716,1.6,1.6v15.412C772.862,1034.597,772.145,1035.313,771.262,1035.313z"/>
			<path style="fill:#B9B419;" d="M840.326,1035.313h-46.825c-0.884,0-1.6-0.716-1.6-1.6v-15.412c0-0.884,0.716-1.6,1.6-1.6h46.825
				c0.884,0,1.6,0.716,1.6,1.6v15.412C841.926,1034.597,841.21,1035.313,840.326,1035.313z"/>
			<path style="fill:#EF5964;" d="M909.391,1035.313h-46.825c-0.884,0-1.6-0.716-1.6-1.6v-15.412c0-0.884,0.716-1.6,1.6-1.6h46.825
				c0.884,0,1.6,0.716,1.6,1.6v15.412C910.99,1034.597,910.274,1035.313,909.391,1035.313z"/>
			<g>
				<path style="fill:#344066;" d="M702.197,1094.604h-46.825c-0.884,0-1.6-0.716-1.6-1.6v-31.935c0-0.884,0.716-1.6,1.6-1.6h46.825
					c0.884,0,1.6,0.716,1.6,1.6v31.935C703.797,1093.887,703.081,1094.604,702.197,1094.604z"/>
				<path style="fill:#344066;" d="M771.262,1094.604h-46.825c-0.884,0-1.6-0.716-1.6-1.6v-31.935c0-0.884,0.716-1.6,1.6-1.6h46.825
					c0.884,0,1.6,0.716,1.6,1.6v31.935C772.862,1093.887,772.145,1094.604,771.262,1094.604z"/>
				<path style="fill:#344066;" d="M840.326,1094.604h-46.825c-0.884,0-1.6-0.716-1.6-1.6v-31.935c0-0.884,0.716-1.6,1.6-1.6h46.825
					c0.884,0,1.6,0.716,1.6,1.6v31.935C841.926,1093.887,841.21,1094.604,840.326,1094.604z"/>
				<path style="fill:#344066;" d="M909.391,1094.604h-46.825c-0.884,0-1.6-0.716-1.6-1.6v-31.935c0-0.884,0.716-1.6,1.6-1.6h46.825
					c0.884,0,1.6,0.716,1.6,1.6v31.935C910.99,1093.887,910.274,1094.604,909.391,1094.604z"/>
			</g>
			<g>
				<path style="fill:#344066;" d="M702.197,1153.894h-46.825c-0.884,0-1.6-0.716-1.6-1.6v-31.935c0-0.884,0.716-1.6,1.6-1.6h46.825
					c0.884,0,1.6,0.716,1.6,1.6v31.935C703.797,1153.178,703.081,1153.894,702.197,1153.894z"/>
				<path style="fill:#344066;" d="M771.262,1153.894h-46.825c-0.884,0-1.6-0.716-1.6-1.6v-31.935c0-0.884,0.716-1.6,1.6-1.6h46.825
					c0.884,0,1.6,0.716,1.6,1.6v31.935C772.862,1153.178,772.145,1153.894,771.262,1153.894z"/>
				<path style="fill:#344066;" d="M840.326,1153.894h-46.825c-0.884,0-1.6-0.716-1.6-1.6v-31.935c0-0.884,0.716-1.6,1.6-1.6h46.825
					c0.884,0,1.6,0.716,1.6,1.6v31.935C841.926,1153.178,841.21,1153.894,840.326,1153.894z"/>
				<path style="fill:#344066;" d="M909.391,1153.894h-46.825c-0.884,0-1.6-0.716-1.6-1.6v-31.935c0-0.884,0.716-1.6,1.6-1.6h46.825
					c0.884,0,1.6,0.716,1.6,1.6v31.935C910.99,1153.178,910.274,1153.894,909.391,1153.894z"/>
			</g>
			<g>
				<path style="fill:#344066;" d="M702.197,1213.184h-46.825c-0.884,0-1.6-0.716-1.6-1.6v-31.935c0-0.884,0.716-1.6,1.6-1.6h46.825
					c0.884,0,1.6,0.716,1.6,1.6v31.935C703.797,1212.468,703.081,1213.184,702.197,1213.184z"/>
				<path style="fill:#344066;" d="M771.262,1213.184h-46.825c-0.884,0-1.6-0.716-1.6-1.6v-31.935c0-0.884,0.716-1.6,1.6-1.6h46.825
					c0.884,0,1.6,0.716,1.6,1.6v31.935C772.862,1212.468,772.145,1213.184,771.262,1213.184z"/>
				<path style="fill:#344066;" d="M840.326,1213.184h-46.825c-0.884,0-1.6-0.716-1.6-1.6v-31.935c0-0.884,0.716-1.6,1.6-1.6h46.825
					c0.884,0,1.6,0.716,1.6,1.6v31.935C841.926,1212.468,841.21,1213.184,840.326,1213.184z"/>
			</g>
			<g>
				<path style="fill:#344066;" d="M702.197,1272.475h-46.825c-0.884,0-1.6-0.716-1.6-1.6v-31.935c0-0.884,0.716-1.6,1.6-1.6h46.825
					c0.884,0,1.6,0.716,1.6,1.6v31.935C703.797,1271.759,703.081,1272.475,702.197,1272.475z"/>
				<path style="fill:#344066;" d="M771.262,1272.475h-46.825c-0.884,0-1.6-0.716-1.6-1.6v-31.935c0-0.884,0.716-1.6,1.6-1.6h46.825
					c0.884,0,1.6,0.716,1.6,1.6v31.935C772.862,1271.759,772.145,1272.475,771.262,1272.475z"/>
				<path style="fill:#344066;" d="M840.326,1272.475h-46.825c-0.884,0-1.6-0.716-1.6-1.6v-31.935c0-0.884,0.716-1.6,1.6-1.6h46.825
					c0.884,0,1.6,0.716,1.6,1.6v31.935C841.926,1271.759,841.21,1272.475,840.326,1272.475z"/>
			</g>
			<path style="fill:#344066;" d="M909.391,1272.475h-46.825c-0.884,0-1.6-0.716-1.6-1.6v-91.225c0-0.884,0.716-1.6,1.6-1.6h46.825
				c0.884,0,1.6,0.716,1.6,1.6v91.225C910.99,1271.759,910.274,1272.475,909.391,1272.475z"/>
		</g>
		<g>
			<path style="fill:#B6CEDD;" d="M757.288,779.616h-13.574c-1.022-4.686-2.79-9.074-5.163-13.025l9.602-10.045
				c0.496-0.519,0.496-1.36,0-1.879l-10.977-11.483c-0.496-0.519-1.3-0.519-1.796,0l-9.602,10.045
				c-3.776-2.483-7.971-4.332-12.45-5.401v-14.2c0-0.734-0.569-1.329-1.27-1.329h-15.523c-0.701,0-1.27,0.595-1.27,1.329v14.2
				c-4.479,1.069-8.674,2.918-12.45,5.401l-9.602-10.045c-0.496-0.519-1.3-0.519-1.796,0l-10.977,11.483
				c-0.496,0.519-0.496,1.36,0,1.879l9.602,10.045c-2.373,3.95-4.14,8.339-5.163,13.025h-13.574c-0.701,0-1.27,0.595-1.27,1.329
				v16.24c0,0.734,0.569,1.329,1.27,1.329h13.574c1.022,4.686,2.79,9.074,5.163,13.025l-9.602,10.045
				c-0.496,0.519-0.496,1.36,0,1.879l10.977,11.483c0.496,0.519,1.3,0.519,1.796,0l9.602-10.045
				c3.776,2.483,7.971,4.332,12.45,5.401v14.2c0,0.734,0.569,1.329,1.27,1.329h15.523c0.701,0,1.27-0.595,1.27-1.329v-14.2
				c4.479-1.07,8.674-2.918,12.45-5.401l9.602,10.045c0.496,0.519,1.3,0.519,1.796,0l10.977-11.483c0.496-0.519,0.496-1.36,0-1.879
				l-9.602-10.045c2.373-3.95,4.141-8.339,5.163-13.025h13.574c0.701,0,1.27-0.595,1.27-1.329v-16.24
				C758.558,780.211,757.99,779.616,757.288,779.616z M704.297,813.943c-13.133,0-23.78-11.139-23.78-24.878
				s10.648-24.878,23.78-24.878c13.133,0,23.78,11.139,23.78,24.878S717.43,813.943,704.297,813.943z"/>
			<path style="fill:#B6CEDD;" d="M763.919,687.098l-7.855-7.964c2.083-3.311,3.564-6.888,4.445-10.566l11.289-0.179
				c0.583-0.009,1.063-0.496,1.072-1.087l0.201-13.085c0.009-0.591-0.456-1.063-1.039-1.054l-11.289,0.179
				c-0.768-3.652-2.141-7.184-4.122-10.43l8.104-8.217c0.419-0.425,0.429-1.102,0.023-1.514l-8.983-9.108
				c-0.406-0.412-1.074-0.401-1.493,0.024l-8.104,8.217c-3.202-2.009-6.685-3.401-10.286-4.18l0.176-11.447
				c0.009-0.591-0.456-1.063-1.039-1.054l-12.905,0.204c-0.583,0.009-1.063,0.496-1.072,1.087l-0.176,11.447
				c-3.628,0.893-7.154,2.396-10.42,4.508l-7.854-7.964c-0.406-0.412-1.074-0.401-1.493,0.024l-9.268,9.397
				c-0.419,0.425-0.429,1.102-0.023,1.514l7.854,7.964c-2.083,3.311-3.564,6.888-4.445,10.566l-11.289,0.179
				c-0.583,0.009-1.063,0.496-1.072,1.087l-0.202,13.085c-0.009,0.591,0.456,1.063,1.039,1.054l11.289-0.179
				c0.768,3.652,2.141,7.183,4.122,10.43l-8.104,8.217c-0.419,0.425-0.429,1.102-0.023,1.514l8.983,9.108
				c0.406,0.412,1.074,0.401,1.493-0.024l8.104-8.217c3.202,2.009,6.685,3.401,10.286,4.18l-0.176,11.447
				c-0.009,0.591,0.456,1.063,1.039,1.054l12.905-0.204c0.583-0.009,1.063-0.496,1.072-1.087l0.176-11.447
				c3.628-0.893,7.155-2.396,10.42-4.508l7.854,7.964c0.406,0.412,1.074,0.401,1.493-0.024l9.268-9.397
				C764.315,688.188,764.325,687.51,763.919,687.098z M713.667,675.869c-7.599-7.706-7.404-20.399,0.437-28.349
				s20.358-8.148,27.958-0.443c7.599,7.706,7.404,20.399-0.437,28.349C733.784,683.377,721.266,683.575,713.667,675.869z"/>
		</g>
		<g>
			<path style="fill:#B6CEDD;" d="M1691.231,925.182h-13.574c-1.022-4.686-2.79-9.074-5.163-13.025l9.602-10.045
				c0.496-0.519,0.496-1.36,0-1.879l-10.977-11.483c-0.496-0.519-1.3-0.519-1.796,0l-9.602,10.045
				c-3.776-2.483-7.971-4.332-12.45-5.401v-14.2c0-0.734-0.568-1.329-1.27-1.329h-15.523c-0.702,0-1.27,0.595-1.27,1.329v14.2
				c-4.479,1.07-8.674,2.918-12.45,5.401l-9.602-10.045c-0.496-0.519-1.3-0.519-1.796,0l-10.977,11.483
				c-0.496,0.519-0.496,1.36,0,1.879l9.602,10.045c-2.373,3.95-4.141,8.339-5.163,13.025h-13.574c-0.701,0-1.27,0.595-1.27,1.329
				v16.24c0,0.734,0.569,1.329,1.27,1.329h13.574c1.022,4.686,2.79,9.074,5.163,13.025l-9.602,10.045
				c-0.496,0.519-0.496,1.36,0,1.879l10.977,11.483c0.496,0.519,1.3,0.519,1.796,0l9.602-10.045
				c3.776,2.483,7.971,4.332,12.45,5.401v14.2c0,0.734,0.569,1.329,1.27,1.329h15.523c0.702,0,1.27-0.595,1.27-1.329v-14.2
				c4.479-1.069,8.674-2.918,12.45-5.401l9.602,10.045c0.496,0.519,1.3,0.519,1.796,0l10.977-11.483c0.496-0.519,0.496-1.36,0-1.879
				l-9.602-10.045c2.373-3.95,4.141-8.339,5.163-13.025h13.574c0.701,0,1.27-0.595,1.27-1.329v-16.24
				C1692.501,925.777,1691.932,925.182,1691.231,925.182z M1638.24,959.509c-13.133,0-23.78-11.139-23.78-24.878
				s10.648-24.878,23.78-24.878c13.133,0,23.78,11.139,23.78,24.878S1651.372,959.509,1638.24,959.509z"/>
			<path style="fill:#B6CEDD;" d="M1780.255,996.386l-7.854-7.964c2.083-3.311,3.564-6.888,4.445-10.566l11.289-0.179
				c0.583-0.009,1.063-0.496,1.072-1.087l0.202-13.085c0.009-0.591-0.456-1.063-1.039-1.054l-11.289,0.179
				c-0.768-3.652-2.14-7.184-4.122-10.43l8.104-8.217c0.419-0.425,0.429-1.102,0.023-1.514l-8.983-9.108
				c-0.406-0.412-1.074-0.401-1.493,0.024l-8.104,8.217c-3.202-2.009-6.685-3.401-10.286-4.18l0.176-11.447
				c0.009-0.591-0.456-1.063-1.039-1.054l-12.905,0.204c-0.583,0.009-1.063,0.496-1.072,1.087l-0.176,11.447
				c-3.628,0.893-7.155,2.396-10.42,4.508l-7.854-7.964c-0.406-0.411-1.074-0.401-1.493,0.024l-9.268,9.397
				c-0.419,0.425-0.429,1.103-0.023,1.514l7.854,7.964c-2.083,3.311-3.564,6.888-4.445,10.566l-11.289,0.179
				c-0.583,0.009-1.063,0.496-1.072,1.087l-0.201,13.085c-0.009,0.591,0.456,1.063,1.039,1.054l11.289-0.179
				c0.768,3.652,2.141,7.183,4.122,10.43l-8.104,8.217c-0.419,0.425-0.429,1.102-0.023,1.514l8.983,9.108
				c0.406,0.412,1.074,0.401,1.493-0.024l8.104-8.217c3.202,2.009,6.685,3.401,10.286,4.18l-0.176,11.447
				c-0.009,0.591,0.456,1.063,1.039,1.054l12.905-0.204c0.583-0.009,1.063-0.496,1.072-1.087l0.176-11.447
				c3.628-0.893,7.155-2.396,10.42-4.507l7.854,7.964c0.406,0.412,1.074,0.401,1.493-0.024l9.268-9.397
				C1780.651,997.475,1780.661,996.797,1780.255,996.386z M1730.003,985.157c-7.599-7.706-7.404-20.399,0.437-28.349
				c7.84-7.95,20.358-8.148,27.958-0.443c7.599,7.706,7.404,20.399-0.436,28.349C1750.12,992.664,1737.602,992.862,1730.003,985.157
				z"/>
		</g>
		<g>
			<g>
				<path style="fill:#EF5964;" d="M597.477,328.898v69.26c0,1.187-0.947,2.159-2.129,2.159h-27.285
					c-1.171,0-2.129-0.971-2.129-2.159v-69.26c0-1.187,0.958-2.159,2.129-2.159h27.285
					C596.53,326.739,597.477,327.71,597.477,328.898z"/>
				<path style="fill:#F9CB64;" d="M645.974,309.768v87.811c0,1.505-0.948,2.737-2.129,2.737H616.56
					c-1.171,0-2.129-1.232-2.129-2.737v-87.811c0-1.505,0.958-2.737,2.129-2.737h27.285
					C645.027,307.031,645.974,308.263,645.974,309.768z"/>
				<path style="fill:#40CCBB;" d="M694.471,284.379v112.432c0,1.927-0.948,3.505-2.129,3.505h-27.285
					c-1.171,0-2.129-1.577-2.129-3.505V284.379c0-1.928,0.958-3.505,2.129-3.505h27.285
					C693.523,280.874,694.471,282.451,694.471,284.379z"/>
				<path style="fill:#40CCBB;" d="M742.967,250.447v145.338c0,2.492-0.947,4.53-2.129,4.53h-27.285
					c-1.171,0-2.129-2.039-2.129-4.53V250.447c0-2.492,0.958-4.531,2.129-4.531h27.285
					C742.02,245.917,742.967,247.956,742.967,250.447z"/>
			</g>
			<path style="fill:#B9B419;" d="M725.831,202.627l-10.51,26.304l-6.688-10.483l-155.018,81.742c-2.131,1.114-4.73-0.116-5.236-2.5
				c-0.057-0.262-0.086-0.523-0.086-0.785c0-1.327,0.707-2.587,1.901-3.246l153.346-84.697l-4.778-11.83L725.831,202.627z"/>
		</g>
		<g>
			<polygon style="fill:#E6EDED;" points="1855.2,207.573 1855.2,397.259 1673.776,397.259 1673.776,162.858 1803.595,162.858 			
				"/>
			<polygon style="fill:#B6CEDD;" points="1803.595,162.855 1803.595,207.573 1855.2,207.573 			"/>
			<path style="fill:#B6CEDD;" d="M1770.023,207.573h-73.158c-1.767,0-3.2-1.433-3.2-3.2v-0.141c0-1.767,1.433-3.2,3.2-3.2h73.158
				c1.767,0,3.2,1.433,3.2,3.2v0.141C1773.223,206.14,1771.791,207.573,1770.023,207.573z"/>
			<g>
				<path style="fill:#B6CEDD;" d="M1826.198,240.005h-129.332c-1.767,0-3.2-1.433-3.2-3.2v-0.141c0-1.767,1.433-3.2,3.2-3.2
					h129.332c1.767,0,3.2,1.433,3.2,3.2v0.141C1829.397,238.572,1827.965,240.005,1826.198,240.005z"/>
				<path style="fill:#B6CEDD;" d="M1826.198,263.852h-129.332c-1.767,0-3.2-1.433-3.2-3.2v-0.141c0-1.767,1.433-3.2,3.2-3.2
					h129.332c1.767,0,3.2,1.433,3.2,3.2v0.141C1829.397,262.42,1827.965,263.852,1826.198,263.852z"/>
				<path style="fill:#B6CEDD;" d="M1826.198,287.7h-129.332c-1.767,0-3.2-1.433-3.2-3.2v-0.141c0-1.767,1.433-3.2,3.2-3.2h129.332
					c1.767,0,3.2,1.433,3.2,3.2v0.141C1829.397,286.267,1827.965,287.7,1826.198,287.7z"/>
				<path style="fill:#B6CEDD;" d="M1826.198,311.547h-129.332c-1.767,0-3.2-1.433-3.2-3.2v-0.141c0-1.767,1.433-3.2,3.2-3.2
					h129.332c1.767,0,3.2,1.433,3.2,3.2v0.141C1829.397,310.114,1827.965,311.547,1826.198,311.547z"/>
				<path style="fill:#B6CEDD;" d="M1826.198,335.394h-129.332c-1.767,0-3.2-1.433-3.2-3.2v-0.141c0-1.767,1.433-3.2,3.2-3.2
					h129.332c1.767,0,3.2,1.433,3.2,3.2v0.141C1829.397,333.962,1827.965,335.394,1826.198,335.394z"/>
				<path style="fill:#B6CEDD;" d="M1826.198,359.242h-129.332c-1.767,0-3.2-1.433-3.2-3.2v-0.141c0-1.767,1.433-3.2,3.2-3.2
					h129.332c1.767,0,3.2,1.433,3.2,3.2v0.141C1829.397,357.809,1827.965,359.242,1826.198,359.242z"/>
			</g>
			<path style="opacity:0.6;fill:#B6CEDD;" d="M1855.2,360.131v37.128h-181.424V162.858h10.232
				c7.192,46.865,26.488,134.481,72.819,165.999C1787.452,349.682,1824.608,357.58,1855.2,360.131z"/>
		</g>
		<g>
			<g>
				<path style="fill:#FC8449;" d="M1171.48,1241.829H997.737c-1.326,0-2.4-1.074-2.4-2.4v-32.479c0-1.325,1.074-2.4,2.4-2.4
					h173.742c1.325,0,2.4,1.074,2.4,2.4v32.479C1173.88,1240.755,1172.805,1241.829,1171.48,1241.829z"/>
				<g>
					<rect x="1019.927" y="1204.55" style="fill:#F9CB64;" width="11.76" height="37.279"/>
					<rect x="1044.516" y="1204.55" style="fill:#F9CB64;" width="25.659" height="37.279"/>
				</g>
			</g>
			<g>
				<path style="fill:#FC8449;" d="M1174.687,1316.388h-173.742c-1.326,0-2.4-1.074-2.4-2.4v-32.479c0-1.325,1.075-2.4,2.4-2.4
					h173.742c1.326,0,2.4,1.075,2.4,2.4v32.479C1177.087,1315.314,1176.012,1316.388,1174.687,1316.388z"/>
				<g>
					<rect x="1023.134" y="1279.109" style="fill:#F9CB64;" width="11.76" height="37.279"/>
					<rect x="1047.724" y="1279.109" style="fill:#F9CB64;" width="25.659" height="37.279"/>
				</g>
			</g>
			<g>
				<path style="fill:#F9684B;" d="M1217.452,1279.109h-173.742c-1.326,0-2.4-1.074-2.4-2.4v-32.479c0-1.325,1.074-2.4,2.4-2.4
					h173.742c1.325,0,2.4,1.075,2.4,2.4v32.479C1219.852,1278.034,1218.777,1279.109,1217.452,1279.109z"/>
				<g>
					<rect x="1065.899" y="1241.829" style="fill:#FC8449;" width="11.76" height="37.279"/>
					<rect x="1090.489" y="1241.829" style="fill:#FC8449;" width="25.659" height="37.279"/>
				</g>
			</g>
			<g>
				<ellipse style="fill:#F9CB64;" cx="1087.299" cy="1127.089" rx="78.66" ry="77.461"/>
				<ellipse style="fill:#FC8449;" cx="1087.299" cy="1127.089" rx="57.823" ry="56.941"/>
				<path style="fill:#F9684B;" d="M1145.122,1127.089c0,31.446-25.89,56.942-57.823,56.942s-57.823-25.495-57.823-56.942
					c0-7.623,1.521-14.897,4.292-21.545c8.616,20.766,29.339,35.396,53.53,35.396c24.192,0,44.914-14.63,53.53-35.396
					C1143.601,1112.192,1145.122,1119.466,1145.122,1127.089z"/>
				<g>
					<path style="fill:#F9CB64;" d="M1082.494,1159.871c-3.625-0.488-7.025-1.465-10.201-2.929c-3.176-1.464-5.879-3.28-8.11-5.446
						l3.532-5.177c0.309-0.458,0.72-0.832,1.232-1.122c0.511-0.29,1.046-0.436,1.603-0.436c0.681,0,1.41,0.237,2.184,0.71
						c0.774,0.473,1.657,1.03,2.649,1.671c0.991,0.641,2.122,1.281,3.393,1.922c1.27,0.641,2.772,1.114,4.508,1.419l1.766-20.504
						c-2.2-0.612-4.377-1.331-6.53-2.158c-2.154-0.827-4.09-1.921-5.809-3.284c-1.72-1.362-3.107-3.084-4.16-5.167
						c-1.053-2.081-1.58-4.684-1.58-7.807c0-2.327,0.472-4.6,1.418-6.82c0.945-2.219,2.316-4.202,4.113-5.947
						c1.796-1.745,4.012-3.184,6.646-4.317c2.633-1.133,5.654-1.7,9.063-1.7l0.511-5.828c0.062-0.739,0.372-1.402,0.929-1.989
						c0.558-0.586,1.285-0.879,2.184-0.879h4.229l-0.79,8.998c3.284,0.519,6.119,1.434,8.505,2.746
						c2.385,1.312,4.461,2.792,6.227,4.439l-2.788,4.165c-0.434,0.611-0.868,1.068-1.302,1.373c-0.434,0.305-0.961,0.458-1.58,0.458
						c-0.464,0-1.015-0.144-1.65-0.435c-0.635-0.29-1.364-0.641-2.184-1.052c-0.821-0.412-1.728-0.831-2.719-1.259
						c-0.992-0.427-2.091-0.778-3.3-1.053l-1.627,18.958c2.231,0.672,4.438,1.412,6.623,2.221c2.184,0.809,4.152,1.854,5.902,3.135
						c1.75,1.281,3.167,2.876,4.252,4.783c1.084,1.907,1.627,4.295,1.627,7.163c0,2.837-0.481,5.5-1.441,7.987
						c-0.961,2.487-2.363,4.685-4.206,6.592c-1.844,1.907-4.113,3.456-6.809,4.646c-2.695,1.19-5.779,1.906-9.248,2.151
						l-0.558,6.728c-0.062,0.702-0.372,1.351-0.93,1.946c-0.558,0.595-1.286,0.893-2.184,0.893h-4.229L1082.494,1159.871z
						 M1077.8,1110.522c0,1.161,0.201,2.183,0.604,3.068c0.402,0.885,0.968,1.672,1.696,2.359c0.728,0.687,1.588,1.298,2.579,1.832
						c0.991,0.534,2.076,1.015,3.253,1.442l1.441-16.944c-1.704,0.214-3.16,0.573-4.369,1.076c-1.208,0.504-2.2,1.123-2.974,1.855
						c-0.775,0.733-1.341,1.55-1.696,2.45C1077.978,1108.561,1077.8,1109.515,1077.8,1110.522z M1100.387,1140.466
						c0-1.159-0.209-2.174-0.628-3.044c-0.418-0.87-1.007-1.64-1.766-2.311c-0.76-0.671-1.65-1.251-2.672-1.739
						c-1.022-0.488-2.138-0.93-3.346-1.327l-1.58,18.581c3.284-0.427,5.771-1.518,7.459-3.272
						C1099.542,1145.6,1100.387,1143.304,1100.387,1140.466z"/>
				</g>
			</g>
		</g>
		<g>
			<polygon style="fill:#B6CEDD;" points="1824.495,1366.128 1442.609,1366.128 1347.969,1060.186 1732.31,1060.186 
				1745.222,1103.043 1755.88,1138.419 			"/>
			<polygon style="fill:#E6EDED;" points="1733.541,1060.186 1716.512,1115.235 1638.901,1366.128 1257.022,1366.128 
				1332.618,1115.235 1349.2,1060.186 			"/>
			<polygon style="fill:#EF5964;" points="1733.541,1060.186 1716.512,1115.235 1332.618,1115.235 1349.2,1060.186 			"/>
			<g>
				<path style="fill:#344066;" d="M1446.003,1059.429c0.015,0.266,0.015,0.516,0,0.757h-9.126
					c-0.054-0.241-0.092-0.491-0.108-0.757c-0.731-11.06-6.864-21.337-15.775-26.78c-9.311-5.7-19.876-3.961-28.81,1.798
					c-9.926,6.408-13.705,17.534-11.796,29.659c1.885,11.942,8.611,22.976,19.922,26.047c5.771,1.565,3.309,11.193-2.455,9.628
					c-12.689-3.445-21.654-14.746-25.27-28.011c-3.124-11.451-2.809-25.098,3.832-35.076c6.271-9.412,16.875-15.628,27.417-17.276
					C1425.796,1015.998,1444.495,1036.669,1446.003,1059.429z"/>
				<path style="fill:#344066;" d="M1521.347,1059.429c0.015,0.266,0.015,0.516,0,0.757h-9.126
					c-0.054-0.241-0.092-0.491-0.108-0.757c-0.731-11.06-6.864-21.337-15.775-26.78c-9.311-5.7-19.876-3.961-28.81,1.798
					c-9.927,6.408-13.705,17.534-11.796,29.659c1.885,11.942,8.611,22.976,19.922,26.047c5.771,1.565,3.309,11.193-2.455,9.628
					c-12.689-3.445-21.654-14.746-25.27-28.011c-3.124-11.451-2.809-25.098,3.832-35.076c6.271-9.412,16.875-15.628,27.417-17.276
					C1501.14,1015.998,1519.839,1036.669,1521.347,1059.429z"/>
				<path style="fill:#344066;" d="M1596.691,1059.429c0.016,0.266,0.016,0.516,0,0.757h-9.126
					c-0.054-0.241-0.092-0.491-0.108-0.757c-0.731-11.06-6.864-21.337-15.775-26.78c-9.311-5.7-19.876-3.961-28.81,1.798
					c-9.926,6.408-13.705,17.534-11.796,29.659c1.885,11.942,8.611,22.976,19.922,26.047c5.771,1.565,3.309,11.193-2.455,9.628
					c-12.689-3.445-21.654-14.746-25.27-28.011c-3.124-11.451-2.809-25.098,3.832-35.076c6.271-9.412,16.875-15.628,27.417-17.276
					C1576.484,1015.998,1595.182,1036.669,1596.691,1059.429z"/>
				<path style="fill:#344066;" d="M1672.035,1059.429c0.015,0.266,0.015,0.516,0,0.757h-9.126
					c-0.054-0.241-0.092-0.491-0.108-0.757c-0.731-11.06-6.864-21.337-15.775-26.78c-9.311-5.7-19.876-3.961-28.81,1.798
					c-9.926,6.408-13.705,17.534-11.796,29.659c1.885,11.942,8.611,22.976,19.922,26.047c5.771,1.565,3.309,11.193-2.455,9.628
					c-12.689-3.445-21.654-14.746-25.27-28.011c-3.124-11.451-2.809-25.098,3.832-35.076c6.271-9.412,16.875-15.628,27.417-17.276
					C1651.828,1015.998,1670.526,1036.669,1672.035,1059.429z"/>
			</g>
			<g>
				<polygon style="fill:#B6CEDD;" points="1565.412,1147.027 1525.353,1147.027 1515.507,1176.749 1555.566,1176.749 				"/>
				<polygon style="fill:#B6CEDD;" points="1535.167,1238.33 1495.108,1238.33 1483.53,1273.282 1523.589,1273.282 				"/>
				<polygon style="fill:#B6CEDD;" points="1551.156,1190.064 1511.097,1190.064 1499.519,1225.016 1539.578,1225.016 				"/>
				<polygon style="fill:#B6CEDD;" points="1393.245,1225.016 1433.304,1225.016 1444.881,1190.064 1404.823,1190.064 				"/>
				<polygon style="fill:#B6CEDD;" points="1462.37,1176.749 1502.429,1176.749 1512.275,1147.027 1472.216,1147.027 				"/>
				<polygon style="fill:#B6CEDD;" points="1622.406,1176.749 1663.067,1176.749 1672.046,1147.027 1631.759,1147.027 				"/>
				<polygon style="fill:#B6CEDD;" points="1430.393,1273.282 1470.452,1273.282 1482.03,1238.33 1441.971,1238.33 				"/>
				<polygon style="fill:#B6CEDD;" points="1377.256,1273.282 1417.315,1273.282 1428.893,1238.33 1388.834,1238.33 				"/>
				<polygon style="fill:#B6CEDD;" points="1520.633,1321.685 1563.79,1321.685 1574.832,1286.597 1532.257,1286.597 				"/>
				<polygon style="fill:#B6CEDD;" points="1618.754,1147.027 1578.49,1147.027 1568.644,1176.749 1609.401,1176.749 				"/>
				<polygon style="fill:#B6CEDD;" points="1498.018,1190.064 1457.96,1190.064 1446.382,1225.016 1486.441,1225.016 				"/>
				<polygon style="fill:#B6CEDD;" points="1341.142,1225.016 1380.167,1225.016 1391.744,1190.064 1351.862,1190.064 				"/>
				<polygon style="fill:#B6CEDD;" points="1618.216,1190.064 1607.217,1225.016 1648.485,1225.016 1659.044,1190.064 				"/>
				<polygon style="fill:#B6CEDD;" points="1359.768,1286.597 1322.256,1286.597 1311.495,1321.685 1348.145,1321.685 				"/>
				<polygon style="fill:#B6CEDD;" points="1644.462,1238.33 1603.027,1238.33 1592.027,1273.282 1633.903,1273.282 				"/>
				<polygon style="fill:#B6CEDD;" points="1519.178,1286.597 1479.12,1286.597 1467.497,1321.685 1507.555,1321.685 				"/>
				<polygon style="fill:#B6CEDD;" points="1466.042,1286.597 1425.983,1286.597 1414.359,1321.685 1454.418,1321.685 				"/>
				<polygon style="fill:#B6CEDD;" points="1401.281,1321.685 1412.905,1286.597 1372.846,1286.597 1361.223,1321.685 				"/>
				<polygon style="fill:#B6CEDD;" points="1605.211,1190.064 1564.234,1190.064 1552.656,1225.016 1594.212,1225.016 				"/>
				<polygon style="fill:#B6CEDD;" points="1364.178,1273.282 1375.756,1238.33 1337.059,1238.33 1326.339,1273.282 				"/>
				<polygon style="fill:#B6CEDD;" points="1590.022,1238.33 1548.245,1238.33 1536.667,1273.282 1579.022,1273.282 				"/>
			</g>
			<polygon style="fill:#E6EDED;" points="1824.495,1366.128 1808.536,1366.128 1744.976,1138.419 1733.541,1097.468 
				1652.328,1366.128 1638.901,1366.128 1725.077,1087.557 1733.541,1060.186 			"/>
			<polygon style="fill:#86B6CE;" points="1744.976,1138.419 1733.541,1138.419 1694.358,1366.128 1652.328,1366.128 
				1733.541,1097.468 			"/>
		</g>
		<g>
			<rect x="1749.559" y="621.389" style="fill:#B6CEDD;" width="27.931" height="78.689"/>
			<path style="fill:#E6EDED;" d="M1763.525,452.025c-50.63,0-91.675,41.619-91.675,92.958c0,51.339,41.045,92.958,91.675,92.958
				c50.63,0,91.675-41.62,91.675-92.958C1855.2,493.644,1814.155,452.025,1763.525,452.025z M1763.525,609.701
				c-35.246,0-63.824-28.978-63.824-64.717c0-35.739,28.578-64.717,63.824-64.717s63.824,28.978,63.824,64.717
				C1827.349,580.722,1798.771,609.701,1763.525,609.701z"/>
			<path style="fill:#77829E;" d="M1781.238,860.586h-35.621c-2.651,0-4.8-2.149-4.8-4.8V692.923c0-2.651,2.149-4.8,4.8-4.8h35.621
				c2.651,0,4.8,2.149,4.8,4.8v162.864C1786.038,858.437,1783.889,860.586,1781.238,860.586z"/>
		</g>
		<g>
			<g>
				<g>
					<path style="fill:#FFFFFF;" d="M876.052,1432.33c-103.903,0-188.132,85.408-188.132,190.765
						c0,105.357,84.229,190.765,188.132,190.765s188.132-85.408,188.132-190.765C1064.185,1517.737,979.956,1432.33,876.052,1432.33
						z M876.052,1757.543c-73.231,0-132.593-60.193-132.593-134.448c0-74.247,59.362-134.44,132.593-134.44
						c73.223,0,132.584,60.193,132.584,134.44C1008.637,1697.35,949.275,1757.543,876.052,1757.543z"/>
					<path style="fill:#FFFFFF;" d="M876.052,1544.261c-42.945,0-77.754,35.296-77.754,78.834c0,43.546,34.809,78.842,77.754,78.842
						c42.937,0,77.746-35.296,77.746-78.842C953.799,1579.557,918.989,1544.261,876.052,1544.261z M876.052,1654.107
						c-16.893,0-30.584-13.883-30.584-31.012c0-17.129,13.691-31.012,30.584-31.012c16.885,0,30.584,13.883,30.584,31.012
						C906.636,1640.224,892.937,1654.107,876.052,1654.107z"/>
				</g>
				<g>
					<ellipse style="fill:#EF5964;" cx="876.052" cy="1623.095" rx="30.584" ry="31.012"/>
					<path style="fill:#EF5964;" d="M876.052,1488.655c-73.231,0-132.593,60.193-132.593,134.44
						c0,74.255,59.362,134.448,132.593,134.448c73.223,0,132.584-60.193,132.584-134.448
						C1008.637,1548.847,949.275,1488.655,876.052,1488.655z M876.052,1701.937c-42.945,0-77.754-35.296-77.754-78.842
						c0-43.538,34.809-78.834,77.754-78.834c42.937,0,77.746,35.296,77.746,78.834
						C953.799,1666.641,918.989,1701.937,876.052,1701.937z"/>
					<path style="fill:#EF5964;" d="M876.052,1384.589c-129.907,0-235.214,106.788-235.214,238.505
						c0,131.725,105.306,238.505,235.214,238.505c129.899,0,235.206-106.78,235.206-238.505
						C1111.258,1491.377,1005.952,1384.589,876.052,1384.589z M876.052,1813.86c-103.903,0-188.132-85.408-188.132-190.765
						c0-105.357,84.229-190.765,188.132-190.765s188.132,85.408,188.132,190.765C1064.185,1728.452,979.956,1813.86,876.052,1813.86
						z"/>
					<ellipse style="fill:#EF5964;" cx="876.052" cy="1623.095" rx="30.584" ry="31.012"/>
					<path style="fill:#EF5964;" d="M876.052,1488.655c-73.231,0-132.593,60.193-132.593,134.44
						c0,74.255,59.362,134.448,132.593,134.448c73.223,0,132.584-60.193,132.584-134.448
						C1008.637,1548.847,949.275,1488.655,876.052,1488.655z M876.052,1701.937c-42.945,0-77.754-35.296-77.754-78.842
						c0-43.538,34.809-78.834,77.754-78.834c42.937,0,77.746,35.296,77.746,78.834
						C953.799,1666.641,918.989,1701.937,876.052,1701.937z"/>
					<ellipse style="fill:#EF5964;" cx="876.052" cy="1623.095" rx="30.584" ry="31.012"/>
					<path style="fill:#EF5964;" d="M876.052,1488.655c-73.231,0-132.593,60.193-132.593,134.44
						c0,74.255,59.362,134.448,132.593,134.448c73.223,0,132.584-60.193,132.584-134.448
						C1008.637,1548.847,949.275,1488.655,876.052,1488.655z M876.052,1701.937c-42.945,0-77.754-35.296-77.754-78.842
						c0-43.538,34.809-78.834,77.754-78.834c42.937,0,77.746,35.296,77.746,78.834
						C953.799,1666.641,918.989,1701.937,876.052,1701.937z"/>
					<ellipse style="fill:#EF5964;" cx="876.052" cy="1623.095" rx="30.584" ry="31.012"/>
					<ellipse style="fill:#EF5964;" cx="876.052" cy="1623.095" rx="30.584" ry="31.012"/>
				</g>
			</g>
			<path style="opacity:0.37;fill:#77445E;" d="M923.134,1727.16c-129.907,0-235.214-106.78-235.214-238.505
				c0-3.004,0.074-5.99,0.182-8.968c-29.668,39.916-47.264,89.577-47.264,143.408c0,131.725,105.306,238.505,235.214,238.505
				c126.935,0,230.368-101.968,235.023-229.533C1068.15,1689.819,999.945,1727.16,923.134,1727.16z"/>
		</g>
		<g>
			<path style="fill:#B9B419;" d="M1165.456,1485.762c3.349,9.184,27.578-6.016,26.134,2.904
				c-1.445,8.919-18.589,7.254-17.297,17.195c1.292,9.94,13.893,21.734,26.354,22.441s22.474,5.189,14.286,9.151
				c-8.188,3.962-20.99-0.616-18.816,9.85c2.174,10.466,10.233,23.42,26.692,29.314c16.458,5.894,42.97-1.387,42.97-1.387
				s22.318-29.232,28.909-56.063c6.591-26.831,7.439-29.077,2.813-33.364s-13.553,20.956-16.755,13.85
				c-3.202-7.106,16.861-14.408,13.811-35.937c-3.05-21.529-14.352-38.355-17.346-28.831c-2.994,9.524-6.599,16.849-9.1,11.385
				s8.746-24.128-1.965-32.655c-10.711-8.527-27.489-15.435-27.439-9.771s-1.201,22.341-7.195,17.543
				c-5.995-4.797-7.139-23.615-17.438-27.719c-10.299-4.104-51.595,0.001-55.02,6.212
				C1155.629,1406.089,1162.106,1476.578,1165.456,1485.762z M1275.273,1458.792c9.419-1.413-1.813,26.122-11.948,17.022
				C1253.19,1466.714,1275.273,1458.792,1275.273,1458.792z M1210.463,1488.611c11.566-8.691,22.576,15.908,22.576,15.908
				c3.901,7.027-6.307,9.076-16.859,5.535S1198.897,1497.303,1210.463,1488.611z M1210.37,1416.523
				c9.764-7.524,10.026,10.767,10.026,10.767c2.453,10.494-9.26,6.399-15.706,4.389
				C1198.244,1429.669,1200.606,1424.047,1210.37,1416.523z"/>
			<g>
				<path style="fill:#718420;" d="M1403.253,1467.452c-2.016-4.497-35.881-6.541-45.02-3.271
					c-9.138,3.271-12.633,17.17-18.277,20.849s-4.435-8.585-3.628-12.762c0.806-4.177-14.111,1.315-24.19,7.856
					c-10.079,6.541-3.225,20.031-6.047,24.12c-2.822,4.088-4.838-1.226-6.047-8.176c-1.209-6.95-12.901,5.723-18.35,21.667
					s10.287,20.849,6.659,26.163c-3.629,5.315-7.66-13.082-12.095-9.811c-4.435,3.27-4.032,4.906-2.161,24.528
					c1.871,19.623,16.525,40.641,16.525,40.641s21.114,4.737,35.628,0c14.514-4.736,22.98-14.477,26.206-22.245
					c3.225-7.767-8.063-4.088-14.353-6.814c-6.289-2.726,2.661-6.268,13.143-7.085c10.482-0.818,22.577-9.811,24.996-17.17
					s-12.095-5.723-12.095-12.264s18.142,4.088,22.174-2.762C1390.352,1524.066,1405.269,1471.948,1403.253,1467.452z
					 M1306.091,1525.911c-9.676,6.95-15.32-13.082-7.66-12.264C1298.431,1513.646,1315.767,1518.961,1306.091,1525.911z
					 M1340.763,1550.03c-9.273,2.862-17.505,1.594-13.304-3.679c0,0,12.498-18.396,20.964-12.264
					C1356.89,1540.219,1350.036,1547.169,1340.763,1550.03z M1360.921,1491.98c-5.644,1.635-15.959,4.933-12.498-2.862
					c0,0,2.688-13.491,9.811-8.176C1365.356,1486.256,1366.566,1490.345,1360.921,1491.98z"/>
			</g>
			<g>
				<path style="fill:#718420;" d="M1162.436,1615.007c5.418,3.397,14.544-11.106,16.951-6.406c2.407,4.7-8.625,9.017-4.178,13.39
					c4.446,4.373,16.448,6.259,24.281,2.88c7.834-3.379,15.569-4.22,12.052,0.119c-3.516,4.339-12.983,5.966-7.806,10.328
					s14.845,8.158,27.018,6.07c12.173-2.088,25.603-13.481,25.603-13.481s2.796-20.649-3.081-35.458
					c-5.877-14.809-6.189-16.137-10.58-16.809s-0.518,14.073-5.081,11.627c-4.563-2.446,4.94-11.926-4.844-21.321
					s-22.849-14.078-21.161-8.627c1.688,5.452,2.196,10.034-1.337,8.164c-3.532-1.87-3.572-14.158-13.222-15.044
					c-9.65-0.887-22.391,0.811-20.275,3.508c2.117,2.696,7.499,11.052,2.089,10.544s-13.037-9.174-20.807-8.067
					c-7.771,1.107-31.355,15.391-31.149,19.385C1127.118,1579.801,1157.018,1611.61,1162.436,1615.007z M1219.24,1569.341
					c5.204-3.486,8.519,13.045-0.991,11.712S1219.24,1569.341,1219.24,1569.341z M1190.837,1602.946
					c3.827-7.61,19.579,0.881,19.579,0.881c4.959,2.2-0.49,6.226-8.207,7.678
					C1194.492,1612.957,1187.009,1610.556,1190.837,1602.946z M1164.229,1568.467c3.162-6.514,10.059,2.163,10.059,2.163
					c5.356,4.292-3.27,5.825-7.928,6.786C1161.702,1578.376,1161.066,1574.981,1164.229,1568.467z"/>
			</g>
			<g>
				<path style="fill:#344066;" d="M1267.498,1691.222c-0.778,0-1.463-0.573-1.59-1.376c-4.158-26.291-10.766-66.198-12.204-70.147
					c-3.395-2.682-42.1-23.881-67.706-37.701c-0.786-0.425-1.084-1.415-0.666-2.212c0.417-0.797,1.396-1.1,2.181-0.676
					c20.137,10.869,67.152,36.387,68.802,38.618c1.612,2.179,8.698,45.795,12.778,71.6c0.141,0.892-0.458,1.73-1.337,1.873
					C1267.668,1691.216,1267.583,1691.222,1267.498,1691.222z M1253.839,1619.814h0.009H1253.839z M1253.638,1619.537
					L1253.638,1619.537L1253.638,1619.537z"/>
				<path style="fill:#344066;" d="M1272.63,1685.754c-0.117,0-0.236-0.013-0.356-0.04c-0.869-0.199-1.414-1.074-1.219-1.955
					c2.882-12.976,28.314-127.001,33.724-134.679c5.458-7.748,49.022-40.92,50.874-42.328c0.716-0.544,1.724-0.394,2.258,0.327
					c0.535,0.723,0.391,1.748-0.322,2.289c-15.549,11.825-46.048,35.74-50.186,41.613c-3.805,5.402-21.94,82.795-33.201,133.497
					C1274.033,1685.238,1273.367,1685.754,1272.63,1685.754z"/>
				<path style="fill:#344066;" d="M1272.483,1695.565c-0.868,0-1.585-0.7-1.611-1.587c-0.035-1.187-3.591-119.25-13.129-167.61
					c-9.425-47.783-55.798-78.221-56.266-78.523c-0.751-0.485-0.972-1.496-0.494-2.258c0.478-0.762,1.474-0.987,2.226-0.501
					c0.479,0.309,47.997,31.468,57.696,80.64c9.592,48.63,13.156,166.965,13.19,168.155c0.027,0.903-0.674,1.656-1.564,1.683
					C1272.515,1695.565,1272.499,1695.565,1272.483,1695.565z"/>
			</g>
			<path style="fill:#E6EDED;" d="M1359.825,1794.843c-1.645,6.979-7.233,16.099-13.877,25.078
				c-12.845,17.378-29.665,34.261-29.665,34.261h-87.599c0,0-38.704-38.853-43.542-59.339c-4.838-20.486-0.806-40.266,16.127-60.045
				c16.933-19.78-8.063-45.211-8.063-45.211l79.278,2.133l79.278-2.133c0,0-10.353,10.533-13.224,23.312
				c-1.58,7.085-0.871,14.849,5.161,21.899C1360.631,1754.577,1364.663,1774.356,1359.825,1794.843z"/>
			<path style="fill:#B6CEDD;" d="M1345.948,1819.92c-12.845,17.378-29.665,34.261-29.665,34.261h-87.599
				c0,0-38.704-38.853-43.542-59.339c-4.838-20.486-0.806-40.266,16.127-60.045c16.933-19.78-8.063-45.211-8.063-45.211
				l79.278,2.133l79.278-2.133c0,0-10.353,10.533-13.224,23.312h-95.34c0,0-37.897,45.211-16.933,86.183
				C1240.561,1827.02,1305.857,1824.413,1345.948,1819.92z"/>
			<path style="fill:#E6EDED;" d="M1356.121,1701.596h-166.986c-2.651,0-4.8-2.149-4.8-4.8v-14.418c0-2.651,2.149-4.8,4.8-4.8
				h166.986c2.651,0,4.8,2.149,4.8,4.8v14.418C1360.921,1699.447,1358.772,1701.596,1356.121,1701.596z"/>
		</g>
		<path style="fill:#B9B419;" d="M1493.439,1508.194l14.292,33.068c0.65,1.503,2.218,2.163,3.569,1.501l75.04-36.78
			c1.181-0.579,2.557-0.152,3.318,1.029l34.821,54.058c0.844,1.311,2.426,1.673,3.649,0.835l142.899-97.892
			c1.242-0.851,2.85-0.463,3.683,0.889l9.551,15.497c1.168,1.896,3.673,1.752,4.668-0.268l29.302-59.471
			c0.997-2.023-0.204-4.538-2.236-4.683l-56.935-4.055c-2.162-0.154-3.631,2.46-2.604,4.634l6.06,12.826
			c0.7,1.481,0.254,3.327-1.012,4.192l-121.963,83.325c-1.11,0.758-2.534,0.536-3.424-0.534l-41.441-49.815
			c-0.745-0.896-1.882-1.213-2.906-0.81l-96.754,38.089C1493.444,1504.447,1492.705,1506.495,1493.439,1508.194z"/>
		<g>
			<path style="fill:#F9CB64;" d="M1428.508,1763.686h18.039c0,0.981-0.04,2.452-0.116,4.412c-0.078,1.962-0.116,3.389-0.116,4.278
				c0,14.708,2.144,24.692,6.436,29.951c4.291,5.26,12.351,7.888,24.182,7.888c2.242,0,3.942-0.021,5.102-0.066
				c1.16-0.044,2.28-0.111,3.365-0.2v-73.137c-20.857-0.268-35.226-4.256-43.106-11.966c-7.881-7.709-11.819-21.327-11.819-40.847
				c0-20.412,3.66-35.052,10.985-43.923c7.323-8.868,19.427-13.304,36.309-13.304c2.003,0,3.544,0.023,4.625,0.067
				c1.078,0.046,2.081,0.067,3.006,0.067v-13.906h16.535v14.039h4.741c17.189,0,29.544,3.677,37.06,11.031
				c7.516,7.354,11.274,19.454,11.274,36.301c0,1.249-0.039,2.653-0.115,4.212c-0.078,1.56-0.232,3.9-0.463,7.019h-18.038
				c0-0.98,0.018-2.094,0.057-3.342c0.038-1.247,0.058-2.985,0.058-5.215c0-11.319-2.121-18.986-6.36-22.998
				c-4.24-4.011-12.528-6.016-24.861-6.016h-3.354v68.457c21.045,0.625,35.459,4.813,43.246,12.568
				c7.785,7.755,11.679,21.66,11.679,41.717c0,21.75-3.625,37.371-10.87,46.863c-7.247,9.494-19.156,14.24-35.73,14.24
				c-2.237,0-3.932-0.022-5.087-0.066c-1.157-0.046-2.237-0.113-3.238-0.201v12.836H1485.4v-12.836c-0.772,0-1.89,0.044-3.354,0.134
				c-1.465,0.088-2.506,0.133-3.122,0.133c-17.885,0-30.836-4.412-38.853-13.237c-8.018-8.825-12.026-23.131-12.026-42.919
				c0-2.227,0.154-5.793,0.462-10.697C1428.508,1764.399,1428.508,1763.953,1428.508,1763.686z M1485.4,1647.495h-4.973
				c-12.334,0-20.68,2.474-25.035,7.421c-4.356,4.947-6.533,14.64-6.533,29.081c0,11.855,2.235,19.811,6.707,23.866
				c4.469,4.057,14.414,6.664,29.833,7.822V1647.495z M1501.935,1810.749h4.51c12.411,0,20.832-2.674,25.266-8.022
				c4.432-5.348,6.649-15.731,6.649-31.153c0-13.014-2.448-21.815-7.343-26.407c-4.896-4.59-14.552-7.107-28.966-7.554
				L1501.935,1810.749z"/>
		</g>
		<g>
			<path style="fill:#E6EDED;" d="M1833.974,1735.645c0,65.464-51.212,118.537-114.38,118.537
				c-63.176,0-114.38-53.073-114.38-118.537c0-65.472,51.203-118.536,114.38-118.536v118.536H1833.974z"/>
			<path style="fill:#40CCBB;" d="M1855.2,1714.626h-114.38v-118.537C1803.988,1596.089,1855.2,1649.153,1855.2,1714.626z"/>
			<path style="fill:#86B6CE;" d="M1719.594,1735.645l-60.695,100.493c-32.245-20.964-53.684-58.135-53.684-100.493H1719.594z"/>
			<path style="fill:#77829E;" d="M1719.594,1735.645v118.537c-22.295,0-43.103-6.612-60.695-18.044L1719.594,1735.645z"/>
		</g>
		<g>
			<g>
				<path style="fill:#B9B419;" d="M1459.356,1444.833c0,0,9.61-30.522,39.836-45.629c30.225-15.106,38.822-13.541,36.743-9.366
					C1533.855,1394.012,1459.356,1444.833,1459.356,1444.833z"/>
				<path style="fill:#B9B419;" d="M1469.94,1441.088c0,0,52.084-43.798,79.769-45.547
					C1577.394,1393.791,1469.94,1441.088,1469.94,1441.088z"/>
				<path style="fill:#B9B419;" d="M1509.964,1427.446c0,0,54.812-32.597,76.397-27.549
					C1607.945,1404.945,1509.964,1427.446,1509.964,1427.446z"/>
				<path style="fill:#B9B419;" d="M1548.232,1421.952c0,0,58.326-19.176,70.436-11.62S1548.232,1421.952,1548.232,1421.952z"/>
				<path style="fill:#B9B419;" d="M1573.792,1423.81c6.656,0.013,71.962-7.747,74.412,0.048
					C1650.654,1431.653,1573.792,1423.81,1573.792,1423.81z"/>
				<path style="fill:#B9B419;" d="M1460.789,1447.57c1.202-0.101,91.928-15.136,88.924-7.455
					C1546.71,1447.796,1460.789,1447.57,1460.789,1447.57z"/>
				<path style="fill:#B9B419;" d="M1482.973,1437.709c0,0,67.432-11.368,64.29-5.389S1482.973,1437.709,1482.973,1437.709z"/>
				<path style="fill:#B9B419;" d="M1544.212,1424.575c0,0,62.858,6.732,48.161,11.964S1544.212,1424.575,1544.212,1424.575z"/>
				<path style="fill:#B9B419;" d="M1600.733,1430.805c0.837-0.18,31.528,12.677,22.099,15.753
					C1613.404,1449.634,1600.733,1430.805,1600.733,1430.805z"/>
			</g>
			<path style="fill:#9B553A;" d="M1451.177,1455.805c0,0,26.805-19.963,80.002-27.851s109.401,13.688,109.401,13.688
				s-52.092-30.493-109.91-19.931c-57.819,10.562-82.868,22.377-83.699,27.018
				C1446.138,1453.37,1445.168,1456.308,1451.177,1455.805z"/>
		</g>
		<g>
			<g>
				<path style="fill:#B9B419;" d="M616.855,1457.538c0,0-7.157-29.006,8.346-54.226c15.503-25.22,22.668-27.61,23.075-23.317
					C648.683,1384.288,616.855,1457.538,616.855,1457.538z"/>
				<path style="fill:#B9B419;" d="M623.01,1449.968c0,0,18.366-57.957,38.246-71.195
					C681.137,1365.536,623.01,1449.968,623.01,1449.968z"/>
				<path style="fill:#B9B419;" d="M646.529,1421.762c0,0,25.669-49.981,44.183-55.069
					C709.225,1361.605,646.529,1421.762,646.529,1421.762z"/>
				<path style="fill:#B9B419;" d="M672.564,1400.955c0,0,34.604-40.529,47.211-39.528
					C732.383,1362.427,672.564,1400.955,672.564,1400.955z"/>
				<path style="fill:#B9B419;" d="M692.55,1391.568c4.983-2.828,50.172-37.019,55.668-31.703
					C753.714,1365.18,692.55,1391.568,692.55,1391.568z"/>
				<path style="fill:#B9B419;" d="M619.213,1459.16c0.851-0.595,61.63-51.565,62.994-44.016
					C683.571,1422.693,619.213,1459.16,619.213,1459.16z"/>
				<path style="fill:#B9B419;" d="M631.169,1441.651c0,0,45.083-38.041,45.543-31.822
					C677.171,1416.047,631.169,1441.651,631.169,1441.651z"/>
				<path style="fill:#B9B419;" d="M670.79,1404.81c0,0,50.168-21.321,41.637-10.782
					C703.896,1404.568,670.79,1404.81,670.79,1404.81z"/>
				<path style="fill:#B9B419;" d="M715.984,1385.783c0.541-0.504,29.534-3.105,23.929,3.427
					C734.308,1395.743,715.984,1385.783,715.984,1385.783z"/>
			</g>
			<path style="fill:#9B553A;" d="M615.895,1469.981c0,0,10.663-27.724,46.737-56.854c36.073-29.13,88.242-35.499,88.242-35.499
				s-53.284-2.661-91.557,30.621c-38.273,33.282-51.452,53.609-49.893,57.751C610.983,1470.143,611.639,1472.955,615.895,1469.981z"
				/>
		</g>
		<g>
			<g>
				<path style="fill:#B9B419;" d="M1239.38,1181.662c0,0,32.641-7.319,48.59-33.046c15.948-25.726,14.201-33.24,9.742-31.575
					S1239.38,1181.662,1239.38,1181.662z"/>
				<path style="fill:#B9B419;" d="M1243.308,1172.603c0,0,46.528-43.737,48.178-67.705
					C1293.137,1080.929,1243.308,1172.603,1243.308,1172.603z"/>
				<path style="fill:#B9B419;" d="M1257.607,1138.323c0,0,34.499-46.479,28.912-65.381
					C1280.932,1054.041,1257.607,1138.323,1257.607,1138.323z"/>
				<path style="fill:#B9B419;" d="M1263.186,1105.295c0,0,20.083-49.978,11.884-60.741
					C1266.871,1033.792,1263.186,1105.295,1263.186,1105.295z"/>
				<path style="fill:#B9B419;" d="M1260.987,1083.051c-0.069-5.776,7.721-62.194-0.656-64.582
					C1251.955,1016.082,1260.987,1083.051,1260.987,1083.051z"/>
				<path style="fill:#B9B419;" d="M1236.434,1180.327c0.098-1.04,15.479-79.275,7.27-76.925
					C1235.494,1105.752,1236.434,1180.327,1236.434,1180.327z"/>
				<path style="fill:#B9B419;" d="M1246.824,1161.404c0,0,11.639-58.142,5.256-55.615
					C1245.697,1108.317,1246.824,1161.404,1246.824,1161.404z"/>
				<path style="fill:#B9B419;" d="M1260.407,1108.697c0,0-7.726-54.778-13.216-42.198
					C1241.701,1079.079,1260.407,1108.697,1260.407,1108.697z"/>
				<path style="fill:#B9B419;" d="M1253.27,1059.436c0.186-0.72-13.845-27.786-17.066-19.707S1253.27,1059.436,1253.27,1059.436z"
					/>
			</g>
			<path style="fill:#9B553A;" d="M1227.684,1188.394c0,0,21.182-22.595,29.207-68.499c8.025-45.904-15.561-95.404-15.561-95.404
				s33.111,46.229,22.258,96.055c-10.853,49.826-23.315,71.17-28.284,71.736S1227.193,1193.592,1227.684,1188.394z"/>
		</g>
	</g>
</g>
</svg>
