<?xml version="1.0" standalone="no"?>
<!DOCTYPE svg PUBLIC "-//W3C//DTD SVG 20010904//EN"
 "http://www.w3.org/TR/2001/REC-SVG-20010904/DTD/svg10.dtd">
<svg version="1.0" xmlns="http://www.w3.org/2000/svg"
 width="600.000000pt" height="500.000000pt" viewBox="0 0 600.000000 500.000000"
 preserveAspectRatio="xMidYMid meet">

<g transform="translate(0.000000,500.000000) scale(0.100000,-0.100000)"
fill="#000000" stroke="none">
<path d="M3426 4975 c-27 -121 -153 -251 -405 -415 -204 -134 -210 -140 -201
-188 3 -20 5 -63 3 -94 -1 -32 2 -60 8 -64 31 -19 323 165 447 281 141 132
199 248 189 376 -3 36 -12 81 -20 100 l-14 34 -7 -30z"/>
<path d="M3501 4724 c-27 -85 -71 -152 -156 -243 -56 -59 -210 -183 -325 -261
-19 -14 -36 -28 -38 -32 -2 -4 -10 -8 -17 -8 -24 0 -44 -62 -47 -146 l-3 -80
25 3 c22 3 23 2 5 -6 -14 -7 -16 -10 -5 -10 9 -1 56 22 105 50 276 158 441
316 503 481 24 63 21 209 -4 272 l-21 48 -22 -68z"/>
<path d="M2030 4025 c-44 -107 -50 -191 -20 -286 65 -211 315 -411 750 -599
72 -31 292 -145 412 -213 316 -178 512 -418 565 -690 9 -45 19 -86 24 -91 7
-9 24 62 40 167 37 258 -43 472 -249 668 -147 141 -326 247 -702 417 -394 179
-571 282 -674 393 -64 69 -92 118 -117 204 l-17 60 -12 -30z"/>
<path d="M1923 3754 c-35 -80 -46 -140 -41 -215 15 -200 180 -361 623 -604
389 -215 564 -324 717 -452 203 -169 327 -359 380 -583 l22 -95 22 72 c81 257
42 499 -113 690 -137 170 -288 271 -772 516 -339 171 -451 236 -565 327 -124
98 -190 191 -231 324 l-21 69 -21 -49z"/>
<path d="M2171 2732 c-60 -23 -146 -103 -179 -166 -24 -46 -27 -62 -27 -151 0
-118 21 -171 93 -243 68 -68 138 -95 244 -95 76 1 95 4 144 29 30 15 57 30 59
33 2 4 -41 6 -94 6 -94 0 -98 1 -138 33 -116 92 -118 267 -3 364 129 111 331
52 380 -110 8 -26 8 -26 9 9 2 67 -28 130 -91 191 -88 87 -142 111 -258 115
-72 2 -106 -2 -139 -15z"/>
<path d="M0 1304 c0 -165 4 -174 69 -174 l41 0 0 50 0 50 51 0 c43 0 55 5 80
29 36 37 39 84 6 132 -33 48 -60 59 -159 59 l-88 0 0 -146z m153 50 c11 -11
-5 -34 -24 -34 -12 0 -19 7 -19 20 0 19 28 28 43 14z"/>
<path d="M331 1306 c-49 -131 -52 -146 -38 -160 9 -10 33 -16 57 -16 33 0 43
4 47 20 4 16 14 20 47 20 28 0 49 -7 64 -20 23 -22 102 -29 102 -9 0 22 -94
274 -108 292 -11 12 -30 17 -66 17 l-52 0 -53 -144z m129 -27 c0 -11 -7 -19
-16 -19 -11 0 -14 5 -10 16 3 9 6 20 6 25 0 6 5 7 10 4 6 -3 10 -15 10 -26z"/>
<path d="M692 1433 c-46 -22 -66 -65 -67 -140 0 -74 20 -107 85 -140 108 -56
239 0 216 92 -6 22 -12 25 -49 25 -34 0 -44 -4 -52 -22 -8 -18 -18 -23 -45
-23 -35 0 -35 1 -38 47 -4 62 10 88 48 88 20 0 30 -5 30 -15 0 -20 32 -35 74
-35 30 0 36 4 36 21 0 34 -37 85 -74 103 -43 20 -122 20 -164 -1z"/>
<path d="M977 1443 c-4 -3 -7 -71 -7 -150 0 -120 2 -143 15 -143 8 0 15 -4 15
-10 0 -5 20 -10 43 -10 l44 0 2 130 c3 165 -6 190 -65 190 -22 0 -44 -3 -47
-7z"/>
<path d="M1137 1443 c-4 -3 -7 -71 -7 -150 0 -120 2 -143 15 -143 8 0 15 -4
15 -10 0 -5 20 -10 45 -10 l45 0 0 55 0 55 60 0 c60 0 60 0 60 29 0 42 -24 61
-76 61 -32 0 -44 4 -44 15 0 12 14 15 70 15 68 0 70 1 70 26 0 59 -10 64 -134
64 -62 0 -116 -3 -119 -7z"/>
<path d="M1430 1304 c0 -165 4 -174 69 -174 l41 0 0 143 c-1 165 -5 177 -69
177 l-41 0 0 -146z"/>
<path d="M1655 1436 c-54 -24 -69 -51 -73 -129 -4 -88 17 -128 81 -157 97 -45
201 -13 222 68 8 32 -16 52 -62 52 -30 0 -40 -5 -48 -22 -12 -27 -63 -37 -76
-16 -15 22 -10 95 7 112 21 21 63 20 71 -1 10 -26 23 -33 71 -33 40 0 43 2 37
23 -14 46 -42 83 -75 99 -41 21 -113 23 -155 4z"/>
<path d="M2067 1443 c-4 -3 -7 -71 -7 -150 0 -120 2 -143 15 -143 8 0 15 -4
15 -10 0 -5 18 -10 39 -10 44 0 51 10 51 71 l0 39 60 0 c58 0 60 1 60 26 0 49
-16 64 -70 64 -38 0 -50 4 -50 15 0 12 14 15 70 15 68 0 70 1 70 26 0 59 -10
64 -134 64 -62 0 -116 -3 -119 -7z"/>
<path d="M2357 1443 c-4 -3 -7 -71 -7 -150 0 -120 2 -143 15 -143 8 0 15 -4
15 -10 0 -5 17 -10 39 -10 48 0 51 7 51 156 0 140 -9 164 -66 164 -22 0 -44
-3 -47 -7z"/>
<path d="M2517 1443 c-4 -3 -7 -71 -7 -150 0 -120 2 -143 15 -143 8 0 15 -4
15 -10 0 -5 18 -10 40 -10 l40 0 0 67 0 67 64 -67 c59 -61 67 -67 105 -67 l41
0 0 145 c0 90 -4 145 -10 145 -5 0 -10 7 -10 15 0 11 -12 15 -45 15 l-45 0 0
-70 0 -71 -60 71 c-56 64 -64 70 -99 70 -21 0 -41 -3 -44 -7z"/>
<path d="M2942 1418 c-79 -207 -94 -258 -79 -273 9 -8 33 -15 57 -15 33 0 42
4 49 23 8 19 15 22 49 19 22 -2 50 -13 61 -23 14 -13 35 -19 65 -19 l45 0 -31
83 c-17 45 -40 110 -52 144 -31 85 -39 93 -100 93 -49 0 -52 -2 -64 -32z m91
-138 c4 -15 0 -20 -15 -20 -14 0 -18 5 -14 16 3 9 6 20 6 25 0 17 17 1 23 -21z"/>
<path d="M3210 1304 c0 -163 4 -174 64 -174 l36 0 0 68 0 67 65 -67 c59 -62
68 -68 105 -68 l40 0 0 143 c0 167 -5 180 -65 175 l-40 -3 -5 -63 -5 -64 -58
66 c-53 60 -62 66 -98 66 l-39 0 0 -146z"/>
<path d="M3620 1432 c-50 -24 -72 -73 -67 -145 6 -97 60 -149 160 -155 49 -2
69 1 95 17 36 23 56 64 47 98 -5 20 -12 23 -51 23 -38 0 -47 -4 -51 -20 -6
-22 -43 -36 -68 -26 -18 6 -21 86 -5 117 15 26 48 24 76 -6 29 -31 104 -37
104 -7 0 28 -37 81 -72 102 -42 25 -120 26 -168 2z"/>
<path d="M3900 1304 c0 -165 4 -174 69 -174 l41 0 0 138 c0 182 0 182 -61 182
l-49 0 0 -146z"/>
<path d="M4090 1305 c-59 -164 -58 -175 20 -175 33 0 43 4 47 20 4 16 14 20
47 20 28 0 49 -7 64 -20 23 -22 102 -29 102 -9 0 22 -94 274 -108 292 -11 12
-30 17 -67 17 l-52 0 -53 -145z m130 -26 c0 -11 -7 -19 -16 -19 -11 0 -14 5
-10 16 3 9 6 20 6 25 0 6 5 7 10 4 6 -3 10 -15 10 -26z"/>
<path d="M4400 1304 c0 -113 3 -149 14 -160 11 -10 43 -14 130 -14 l116 0 0
31 c0 58 -14 69 -85 69 l-65 0 0 91 c0 115 -7 129 -65 129 l-45 0 0 -146z"/>
<path d="M4827 1443 c-4 -3 -7 -71 -7 -150 0 -120 2 -143 15 -143 8 0 15 -4
15 -10 0 -5 20 -10 45 -10 l45 0 0 54 0 54 35 4 c20 2 38 2 40 -1 3 -2 5 -22
5 -43 0 -50 18 -68 69 -68 32 0 41 4 42 18 3 47 -2 250 -7 275 -5 26 -8 28
-52 25 l-47 -3 -3 -52 -3 -53 -40 0 c-38 0 -39 1 -39 38 -1 52 -19 72 -67 72
-22 0 -43 -3 -46 -7z"/>
<path d="M5187 1443 c-13 -12 -7 -193 7 -227 20 -49 66 -77 136 -83 68 -7 111
7 140 45 17 21 20 40 20 126 0 143 -2 146 -61 146 l-49 0 0 -103 c0 -112 -6
-127 -51 -127 -34 0 -39 13 -39 108 0 114 -4 122 -54 122 -24 0 -46 -3 -49 -7z"/>
<path d="M5540 1304 c0 -113 3 -149 14 -160 18 -17 187 -20 235 -3 51 18 67
72 35 118 -13 18 -14 28 -5 47 22 50 7 100 -39 127 -21 13 -53 17 -134 17
l-106 0 0 -146z m178 44 c-7 -20 -68 -23 -68 -4 0 12 10 16 36 16 24 0 34 -4
32 -12z m2 -113 c0 -10 -11 -15 -35 -15 -24 0 -35 5 -35 15 0 10 11 15 35 15
24 0 35 -5 35 -15z"/>
<path d="M1961 808 c-20 -7 -23 -14 -19 -46 3 -25 0 -40 -10 -48 -18 -13 -19
-58 -2 -79 16 -20 150 -19 150 2 0 7 -5 13 -10 13 -7 0 -8 13 -4 35 5 28 3 35
-10 35 -10 0 -16 -9 -16 -22 l-1 -23 -19 23 c-20 24 -20 24 2 41 46 37 -2 91
-61 69z m42 -33 c8 -18 -11 -31 -25 -17 -11 11 -3 32 12 32 4 0 10 -7 13 -15z
m-10 -100 c17 -24 17 -25 -1 -25 -23 0 -46 25 -37 40 9 15 18 12 38 -15z"/>
<path d="M2602 812 c-29 -4 -53 -41 -46 -69 5 -19 21 -29 77 -47 21 -7 22 -35
1 -43 -8 -3 -27 0 -41 6 -19 9 -29 9 -37 1 -17 -18 21 -40 69 -40 49 0 65 13
65 56 0 37 -12 49 -60 61 -52 14 -46 39 8 36 35 -2 43 1 40 14 -3 18 -41 31
-76 25z"/>
<path d="M4232 812 c-12 -2 -30 -14 -38 -28 -15 -22 -15 -26 0 -49 9 -14 31
-28 47 -32 34 -6 48 -28 30 -46 -8 -8 -19 -8 -43 1 -23 8 -35 9 -43 1 -16 -17
23 -39 71 -39 47 0 67 17 67 56 0 32 -18 50 -63 61 -52 14 -46 39 8 36 35 -2
43 1 40 14 -3 18 -41 31 -76 25z"/>
<path d="M400 715 c0 -88 1 -95 20 -95 17 0 20 7 20 40 0 39 1 40 35 40 24 0
35 5 35 15 0 10 -11 15 -35 15 -31 0 -35 3 -35 25 0 23 4 25 40 25 29 0 40 4
40 15 0 12 -13 15 -60 15 l-60 0 0 -95z"/>
<path d="M550 715 c0 -88 1 -95 20 -95 19 0 20 7 20 95 0 88 -1 95 -20 95 -19
0 -20 -7 -20 -95z"/>
<path d="M640 715 c0 -88 2 -95 20 -95 16 0 19 8 22 63 l3 62 38 -62 c26 -42
45 -63 58 -63 17 0 19 8 19 95 0 88 -2 95 -20 95 -16 0 -19 -8 -22 -57 l-3
-58 -33 58 c-26 45 -39 57 -58 57 -24 0 -24 -1 -24 -95z"/>
<path d="M864 728 c-15 -46 -29 -89 -32 -95 -2 -8 4 -13 16 -13 12 0 23 9 27
20 5 15 15 20 45 20 29 0 39 -4 43 -20 3 -12 14 -20 25 -20 19 0 19 4 -11 95
-29 89 -33 95 -58 95 -25 0 -29 -6 -55 -82z m66 18 c0 -8 3 -21 6 -30 4 -12 0
-16 -15 -16 -21 0 -26 15 -15 44 8 20 24 21 24 2z"/>
<path d="M1040 715 c0 -84 2 -95 18 -95 14 0 17 9 15 60 0 33 2 60 6 60 4 0
23 -27 42 -60 25 -45 40 -60 57 -60 21 0 22 3 22 95 0 88 -2 95 -20 95 -16 0
-19 -8 -22 -57 l-3 -58 -35 58 c-26 42 -40 57 -57 57 -22 0 -23 -3 -23 -95z"/>
<path d="M1261 784 c-31 -39 -29 -107 4 -139 42 -43 135 -26 135 23 0 17 -25
15 -40 -3 -31 -37 -80 -4 -80 54 0 57 34 77 80 49 15 -10 22 -10 32 0 20 20
-17 42 -68 42 -34 0 -47 -5 -63 -26z"/>
<path d="M1440 715 c0 -88 1 -95 20 -95 19 0 20 7 20 95 0 88 -1 95 -20 95
-19 0 -20 -7 -20 -95z"/>
<path d="M1561 788 c-4 -13 -18 -49 -30 -81 -26 -72 -26 -87 -1 -87 13 0 20 7
20 20 0 17 7 20 41 20 32 0 42 -4 46 -20 5 -20 43 -29 43 -11 0 6 -14 48 -31
95 -27 76 -34 86 -55 86 -16 0 -27 -8 -33 -22z m48 -70 c1 -12 -6 -18 -19 -18
-24 0 -23 -2 -8 40 10 30 12 32 19 14 4 -10 8 -27 8 -36z"/>
<path d="M1710 715 l0 -95 65 0 c51 0 65 3 65 15 0 11 -12 15 -45 15 l-45 0 0
80 c0 73 -2 80 -20 80 -19 0 -20 -7 -20 -95z"/>
<path d="M2170 715 l0 -95 56 0 c74 0 94 12 94 56 0 20 -6 37 -14 40 -11 4
-12 11 -3 34 17 44 -3 60 -74 60 l-59 0 0 -95z m100 45 c0 -16 -7 -20 -30 -20
-23 0 -30 4 -30 20 0 16 7 20 30 20 23 0 30 -4 30 -20z m5 -80 c0 -21 -5 -26
-32 -28 -31 -3 -33 -1 -33 28 0 29 2 31 33 28 27 -2 32 -7 32 -28z"/>
<path d="M2360 735 c0 -90 17 -115 78 -115 64 0 76 16 80 109 4 76 3 81 -17
81 -18 0 -20 -7 -23 -71 -2 -55 -7 -74 -20 -83 -13 -8 -23 -8 -35 0 -14 9 -19
28 -21 83 -3 63 -5 71 -22 71 -18 0 -20 -7 -20 -75z"/>
<path d="M2730 715 c0 -88 1 -95 20 -95 19 0 20 7 20 95 0 88 -1 95 -20 95
-19 0 -20 -7 -20 -95z"/>
<path d="M2820 715 c0 -78 3 -95 15 -95 15 0 19 21 15 88 -1 17 2 32 7 32 5 0
25 -27 44 -60 25 -45 40 -60 57 -60 21 0 22 3 22 95 0 88 -2 95 -20 95 -16 0
-19 -8 -22 -57 l-3 -58 -35 57 c-26 42 -41 58 -57 58 -22 0 -23 -3 -23 -95z"/>
<path d="M3030 715 l0 -95 65 0 c51 0 65 3 65 15 0 11 -12 15 -45 15 -41 0
-45 2 -45 25 0 22 4 25 35 25 28 0 35 4 35 20 0 16 -7 20 -35 20 -28 0 -35 4
-35 20 0 17 7 20 39 20 25 0 41 5 45 15 4 12 -6 15 -59 15 l-65 0 0 -95z"/>
<path d="M3194 786 c-15 -24 -15 -28 0 -51 9 -13 31 -28 49 -33 35 -9 48 -38
22 -48 -9 -4 -27 -1 -41 6 -19 11 -27 11 -37 1 -18 -19 18 -41 68 -41 49 0 65
13 65 56 0 37 -12 49 -60 61 -52 14 -46 39 8 36 36 -2 43 1 40 15 -2 13 -15
18 -50 20 -41 3 -49 0 -64 -22z"/>
<path d="M3362 798 c-16 -16 -16 -63 1 -76 6 -6 28 -14 47 -19 38 -10 52 -39
24 -50 -10 -3 -30 1 -46 10 -27 15 -29 15 -35 0 -15 -39 88 -61 120 -25 35 38
19 75 -38 95 -23 8 -41 22 -43 31 -3 15 3 17 40 14 33 -2 43 0 43 12 0 20 -94
27 -113 8z"/>
<path d="M3601 784 c-14 -18 -21 -41 -21 -69 0 -62 29 -95 84 -95 42 0 76 21
76 48 0 17 -25 15 -40 -3 -31 -37 -80 -4 -80 54 0 57 34 77 80 49 15 -10 22
-10 32 0 20 20 -17 42 -68 42 -34 0 -47 -5 -63 -26z"/>
<path d="M3790 790 c-32 -32 -30 -112 3 -147 29 -32 95 -32 125 0 35 37 27
133 -12 159 -23 16 -96 8 -116 -12z m98 -22 c16 -16 16 -90 0 -106 -7 -7 -21
-12 -33 -12 -32 0 -45 19 -45 65 0 46 13 65 45 65 12 0 26 -5 33 -12z"/>
<path d="M3984 797 c-3 -8 -4 -49 -2 -93 3 -66 6 -79 21 -82 15 -3 17 5 17 65
l1 68 42 -67 c31 -50 48 -67 65 -68 21 0 22 3 22 95 0 88 -2 95 -20 95 -16 0
-19 -8 -22 -57 l-3 -58 -37 58 c-37 57 -72 75 -84 44z"/>
<path d="M4360 732 c0 -93 13 -112 77 -112 60 0 77 25 81 116 4 70 3 74 -17
74 -19 0 -21 -6 -21 -63 0 -77 -15 -103 -53 -93 -26 6 -27 9 -27 81 0 68 -2
75 -20 75 -18 0 -20 -7 -20 -78z"/>
<path d="M4560 715 l0 -95 65 0 c51 0 65 3 65 15 0 11 -12 15 -45 15 l-45 0 0
80 c0 73 -2 80 -20 80 -19 0 -20 -7 -20 -95z"/>
<path d="M4700 795 c0 -9 9 -15 25 -15 29 0 41 -31 32 -85 -7 -42 1 -75 19
-75 10 0 14 21 16 78 3 76 3 77 31 80 15 2 27 9 27 18 0 11 -17 14 -75 14 -60
0 -75 -3 -75 -15z"/>
<path d="M4894 728 c-15 -46 -29 -89 -32 -95 -2 -8 4 -13 16 -13 12 0 23 9 27
20 5 15 15 20 45 20 29 0 39 -4 43 -20 3 -12 14 -20 25 -20 19 0 19 4 -11 95
-29 89 -33 95 -58 95 -25 0 -29 -6 -55 -82z m71 -5 c5 -19 2 -23 -14 -23 -21
0 -26 15 -15 45 8 19 19 10 29 -22z"/>
<path d="M5070 715 c0 -78 3 -95 15 -95 12 0 15 13 15 60 0 33 3 60 8 60 4 0
24 -27 44 -60 26 -42 43 -60 58 -60 19 0 20 6 20 95 0 88 -2 95 -20 95 -16 0
-19 -8 -22 -57 l-3 -58 -35 58 c-26 42 -40 57 -57 57 -22 0 -23 -3 -23 -95z"/>
<path d="M5260 795 c0 -9 9 -15 25 -15 25 0 25 -1 25 -80 0 -73 2 -80 20 -80
18 0 20 7 20 80 l0 80 30 0 c20 0 30 5 30 15 0 12 -15 15 -75 15 -60 0 -75 -3
-75 -15z"/>
<path d="M5434 786 c-15 -24 -15 -28 0 -51 9 -13 31 -28 49 -33 35 -9 48 -38
22 -48 -9 -4 -27 -1 -41 6 -19 11 -27 11 -37 1 -18 -19 18 -41 68 -41 49 0 65
13 65 56 0 37 -12 49 -60 61 -52 14 -46 39 8 36 36 -2 43 1 40 15 -2 13 -15
18 -50 20 -41 3 -49 0 -64 -22z"/>
</g>
</svg>
